<?xml version="1.0" encoding="utf-8" standalone="no"?>
<!DOCTYPE svg PUBLIC "-//W3C//DTD SVG 1.1//EN"
  "http://www.w3.org/Graphics/SVG/1.1/DTD/svg11.dtd">
<svg xmlns:xlink="http://www.w3.org/1999/xlink" width="907.2pt" height="788.642156pt" viewBox="0 0 907.2 788.642156" xmlns="http://www.w3.org/2000/svg" version="1.1">
 <metadata>
  <rdf:RDF xmlns:dc="http://purl.org/dc/elements/1.1/" xmlns:cc="http://creativecommons.org/ns#" xmlns:rdf="http://www.w3.org/1999/02/22-rdf-syntax-ns#">
   <cc:Work>
    <dc:type rdf:resource="http://purl.org/dc/dcmitype/StillImage"/>
    <dc:date>2025-06-03T10:52:44.302161</dc:date>
    <dc:format>image/svg+xml</dc:format>
    <dc:creator>
     <cc:Agent>
      <dc:title>Matplotlib v3.10.3, https://matplotlib.org/</dc:title>
     </cc:Agent>
    </dc:creator>
   </cc:Work>
  </rdf:RDF>
 </metadata>
 <defs>
  <style type="text/css">*{stroke-linejoin: round; stroke-linecap: butt}</style>
 </defs>
 <g id="figure_1">
  <g id="patch_1">
   <path d="M 0 788.642156 
L 907.2 788.642156 
L 907.2 0 
L 0 0 
z
" style="fill: #ffffff"/>
  </g>
  <g id="axes_1">
   <g id="patch_2">
    <path d="M 44.4 282.482156 
L 714 282.482156 
L 714 -249.741844 
L 44.4 -249.741844 
z
" clip-path="url(#pf0b48426a4)" style="fill: #1a5276; opacity: 0.3; stroke: #000000; stroke-width: 2; stroke-linejoin: miter"/>
   </g>
   <g id="patch_3">
    <path d="M 44.4 615.122156 
L 714 615.122156 
L 714 282.482156 
L 44.4 282.482156 
z
" clip-path="url(#pf0b48426a4)" style="fill: #2874a6; opacity: 0.3; stroke: #000000; stroke-width: 2; stroke-linejoin: miter"/>
   </g>
   <g id="patch_4">
    <path d="M 44.4 748.178156 
L 714 748.178156 
L 714 615.122156 
L 44.4 615.122156 
z
" clip-path="url(#pf0b48426a4)" style="fill: #3498db; opacity: 0.3; stroke: #000000; stroke-width: 2; stroke-linejoin: miter"/>
   </g>
   <g id="patch_5">
    <path d="M 211.8 349.010156 
L 204.36 335.704556 
L 211.428 335.704556 
L 211.428 182.690156 
L 212.172 182.690156 
L 212.172 335.704556 
L 219.24 335.704556 
z
" clip-path="url(#pf0b48426a4)" style="fill: #154360; stroke: #154360; stroke-width: 1.5; stroke-linejoin: miter"/>
   </g>
   <g id="patch_6">
    <path d="M 435 349.010156 
L 422.56584 339.127005 
L 429.128313 336.779756 
L 360.254607 182.813696 
L 360.945393 182.566617 
L 429.8191 336.532677 
L 436.381573 334.185429 
z
" clip-path="url(#pf0b48426a4)" style="fill: #154360; stroke: #154360; stroke-width: 1.5; stroke-linejoin: miter"/>
   </g>
   <g id="patch_7">
    <path d="M 435 349.010156 
L 433.618427 334.185429 
L 440.1809 336.532677 
L 509.054607 182.566617 
L 509.745393 182.813696 
L 440.871687 336.779756 
L 447.43416 339.127005 
z
" clip-path="url(#pf0b48426a4)" style="fill: #154360; stroke: #154360; stroke-width: 1.5; stroke-linejoin: miter"/>
   </g>
   <g id="patch_8">
    <path d="M 658.2 349.010156 
L 650.76 335.704556 
L 657.828 335.704556 
L 657.828 182.690156 
L 658.572 182.690156 
L 658.572 335.704556 
L 665.64 335.704556 
z
" clip-path="url(#pf0b48426a4)" style="fill: #154360; stroke: #154360; stroke-width: 1.5; stroke-linejoin: miter"/>
   </g>
   <g id="patch_9">
    <path d="M 807 349.010156 
L 799.56 335.704556 
L 806.628 335.704556 
L 806.628 182.690156 
L 807.372 182.690156 
L 807.372 335.704556 
L 814.44 335.704556 
z
" clip-path="url(#pf0b48426a4)" style="fill: #154360; stroke: #154360; stroke-width: 1.5; stroke-linejoin: miter"/>
   </g>
   <g id="patch_10">
    <path d="M 342 382.274156 
L 327.12 388.926956 
L 327.12 382.606796 
L 193.2 382.606796 
L 193.2 381.941516 
L 327.12 381.941516 
L 327.12 375.621356 
z
" clip-path="url(#pf0b48426a4)" style="fill: #154360; stroke: #154360; stroke-width: 1.5; stroke-linejoin: miter"/>
   </g>
   <g id="patch_11">
    <path d="M 565.2 382.274156 
L 550.32 388.926956 
L 550.32 382.606796 
L 416.4 382.606796 
L 416.4 381.941516 
L 550.32 381.941516 
L 550.32 375.621356 
z
" clip-path="url(#pf0b48426a4)" style="fill: #154360; stroke: #154360; stroke-width: 1.5; stroke-linejoin: miter"/>
   </g>
   <g id="patch_12">
    <path d="M 714 382.274156 
L 699.12 388.926956 
L 699.12 382.606796 
L 639.6 382.606796 
L 639.6 381.941516 
L 699.12 381.941516 
L 699.12 375.621356 
z
" clip-path="url(#pf0b48426a4)" style="fill: #154360; stroke: #154360; stroke-width: 1.5; stroke-linejoin: miter"/>
   </g>
   <g id="patch_13">
    <path d="M 230.4 548.594156 
L 221.749983 535.887002 
L 228.793568 535.362141 
L 211.429285 349.03778 
L 212.170715 348.982532 
L 229.534998 535.306893 
L 236.578584 534.782032 
z
" clip-path="url(#pf0b48426a4)" style="fill: #154360; stroke: #154360; stroke-width: 1.5; stroke-linejoin: miter"/>
   </g>
   <g id="patch_14">
    <path d="M 230.4 548.594156 
L 234.970356 534.290417 
L 240.180561 538.561105 
L 434.725779 348.785383 
L 435.274221 349.234929 
L 240.729004 539.010651 
L 245.939209 543.281339 
z
" clip-path="url(#pf0b48426a4)" style="fill: #154360; stroke: #154360; stroke-width: 1.5; stroke-linejoin: miter"/>
   </g>
   <g id="patch_15">
    <path d="M 602.4 548.594156 
L 598.79107 534.072287 
L 605.648037 535.605151 
L 657.839107 348.929479 
L 658.560893 349.090833 
L 606.369823 535.766505 
L 613.22679 537.299369 
z
" clip-path="url(#pf0b48426a4)" style="fill: #154360; stroke: #154360; stroke-width: 1.5; stroke-linejoin: miter"/>
   </g>
   <g id="patch_16">
    <path d="M 602.4 548.594156 
L 606.970356 534.290417 
L 612.180561 538.561105 
L 806.725779 348.785383 
L 807.274221 349.234929 
L 612.729004 539.010651 
L 617.939209 543.281339 
z
" clip-path="url(#pf0b48426a4)" style="fill: #154360; stroke: #154360; stroke-width: 1.5; stroke-linejoin: miter"/>
   </g>
   <g id="patch_17">
    <path d="M 528 615.122156 
L 513.12 621.774956 
L 513.12 615.454796 
L 304.8 615.454796 
L 304.8 614.789516 
L 513.12 614.789516 
L 513.12 608.469356 
z
" clip-path="url(#pf0b48426a4)" style="fill: #154360; stroke: #154360; stroke-width: 1.5; stroke-linejoin: miter"/>
   </g>
   <g id="patch_18">
    <path d="M 304.8 615.122156 
L 319.68 608.469356 
L 319.68 614.789516 
L 528 614.789516 
L 528 615.454796 
L 319.68 615.454796 
L 319.68 621.774956 
z
" clip-path="url(#pf0b48426a4)" style="fill: #154360; stroke: #154360; stroke-width: 1.5; stroke-linejoin: miter"/>
   </g>
   <g id="patch_19">
    <path d="M 156 215.954156 
L 267.6 215.954156 
L 267.6 149.426156 
L 156 149.426156 
z
" clip-path="url(#pf0b48426a4)" style="fill: #1a5276; opacity: 0.9; stroke: #000000; stroke-width: 1.5; stroke-linejoin: miter"/>
   </g>
   <g id="patch_20">
    <path d="M 304.8 215.954156 
L 416.4 215.954156 
L 416.4 149.426156 
L 304.8 149.426156 
z
" clip-path="url(#pf0b48426a4)" style="fill: #1a5276; opacity: 0.9; stroke: #000000; stroke-width: 1.5; stroke-linejoin: miter"/>
   </g>
   <g id="patch_21">
    <path d="M 453.6 215.954156 
L 565.2 215.954156 
L 565.2 149.426156 
L 453.6 149.426156 
z
" clip-path="url(#pf0b48426a4)" style="fill: #1a5276; opacity: 0.9; stroke: #000000; stroke-width: 1.5; stroke-linejoin: miter"/>
   </g>
   <g id="patch_22">
    <path d="M 602.4 215.954156 
L 714 215.954156 
L 714 149.426156 
L 602.4 149.426156 
z
" clip-path="url(#pf0b48426a4)" style="fill: #1a5276; opacity: 0.9; stroke: #000000; stroke-width: 1.5; stroke-linejoin: miter"/>
   </g>
   <g id="patch_23">
    <path d="M 751.2 215.954156 
L 862.8 215.954156 
L 862.8 149.426156 
L 751.2 149.426156 
z
" clip-path="url(#pf0b48426a4)" style="fill: #1a5276; opacity: 0.9; stroke: #000000; stroke-width: 1.5; stroke-linejoin: miter"/>
   </g>
   <g id="patch_24">
    <path d="M 156 382.274156 
L 267.6 382.274156 
L 267.6 315.746156 
L 156 315.746156 
z
" clip-path="url(#pf0b48426a4)" style="fill: #2874a6; opacity: 0.9; stroke: #000000; stroke-width: 1.5; stroke-linejoin: miter"/>
   </g>
   <g id="patch_25">
    <path d="M 379.2 382.274156 
L 490.8 382.274156 
L 490.8 315.746156 
L 379.2 315.746156 
z
" clip-path="url(#pf0b48426a4)" style="fill: #2874a6; opacity: 0.9; stroke: #000000; stroke-width: 1.5; stroke-linejoin: miter"/>
   </g>
   <g id="patch_26">
    <path d="M 602.4 382.274156 
L 714 382.274156 
L 714 315.746156 
L 602.4 315.746156 
z
" clip-path="url(#pf0b48426a4)" style="fill: #2874a6; opacity: 0.9; stroke: #000000; stroke-width: 1.5; stroke-linejoin: miter"/>
   </g>
   <g id="patch_27">
    <path d="M 751.2 382.274156 
L 862.8 382.274156 
L 862.8 315.746156 
L 751.2 315.746156 
z
" clip-path="url(#pf0b48426a4)" style="fill: #2874a6; opacity: 0.9; stroke: #000000; stroke-width: 1.5; stroke-linejoin: miter"/>
   </g>
   <g id="patch_28">
    <path d="M 230.4 615.122156 
L 379.2 615.122156 
L 379.2 548.594156 
L 230.4 548.594156 
z
" clip-path="url(#pf0b48426a4)" style="fill: #3498db; opacity: 0.9; stroke: #000000; stroke-width: 1.5; stroke-linejoin: miter"/>
   </g>
   <g id="patch_29">
    <path d="M 602.4 615.122156 
L 788.4 615.122156 
L 788.4 548.594156 
L 602.4 548.594156 
z
" clip-path="url(#pf0b48426a4)" style="fill: #3498db; opacity: 0.9; stroke: #000000; stroke-width: 1.5; stroke-linejoin: miter"/>
   </g>
   <g id="text_1">
    <!-- 应用层 (APPLICATION LAYER) -->
    <g transform="translate(59.28 21.220313) scale(0.18 -0.18)">
     <defs>
      <path id="NotoSansCJKjp-Bold-5e94" d="M 1651 3130 
C 1914 2438 2214 1517 2330 915 
L 3053 1216 
C 2912 1811 2605 2694 2323 3392 
L 1651 3130 
z
M 2925 3533 
C 3130 2835 3360 1920 3443 1325 
L 4186 1530 
C 4083 2131 3846 3008 3622 3712 
L 2925 3533 
z
M 2906 5331 
C 2989 5139 3085 4909 3155 4691 
L 691 4691 
L 691 2970 
C 691 2042 653 717 173 -192 
C 358 -269 710 -499 851 -634 
C 1389 358 1472 1939 1472 2970 
L 1472 3968 
L 6093 3968 
L 6093 4691 
L 4013 4691 
C 3930 4941 3802 5261 3680 5510 
L 2906 5331 
z
M 1376 403 
L 1376 -320 
L 6163 -320 
L 6163 403 
L 4576 403 
C 5146 1344 5600 2445 5907 3462 
L 5088 3738 
C 4851 2650 4384 1363 3770 403 
L 1376 403 
z
" transform="scale(0.015625)"/>
      <path id="NotoSansCJKjp-Bold-7528" d="M 909 5011 
L 909 2714 
C 909 1811 851 666 147 -109 
C 320 -205 634 -467 755 -608 
C 1216 -109 1453 595 1562 1299 
L 2880 1299 
L 2880 -493 
L 3654 -493 
L 3654 1299 
L 5005 1299 
L 5005 339 
C 5005 224 4960 186 4845 186 
C 4723 186 4301 179 3936 198 
C 4038 0 4160 -333 4186 -538 
C 4768 -544 5158 -525 5421 -403 
C 5683 -288 5773 -77 5773 333 
L 5773 5011 
L 909 5011 
z
M 1664 4275 
L 2880 4275 
L 2880 3533 
L 1664 3533 
L 1664 4275 
z
M 5005 4275 
L 5005 3533 
L 3654 3533 
L 3654 4275 
L 5005 4275 
z
M 1664 2816 
L 2880 2816 
L 2880 2022 
L 1645 2022 
C 1658 2266 1664 2496 1664 2707 
L 1664 2816 
z
M 5005 2816 
L 5005 2022 
L 3654 2022 
L 3654 2816 
L 5005 2816 
z
" transform="scale(0.015625)"/>
      <path id="NotoSansCJKjp-Bold-5c42" d="M 1978 2931 
L 1978 2272 
L 5619 2272 
L 5619 2931 
L 1978 2931 
z
M 1504 4518 
L 4998 4518 
L 4998 3981 
L 1504 3981 
L 1504 4518 
z
M 730 5165 
L 730 3270 
C 730 2266 685 813 134 -173 
C 326 -243 672 -429 826 -557 
C 1414 506 1504 2170 1504 3277 
L 1504 3328 
L 5773 3328 
L 5773 5165 
L 730 5165 
z
M 4358 870 
L 4666 358 
L 2842 243 
C 3072 518 3296 832 3488 1146 
L 5037 1146 
L 4358 870 
z
M 1990 -550 
C 2240 -461 2592 -429 4998 -237 
C 5075 -390 5146 -531 5197 -646 
L 5926 -314 
C 5734 64 5338 691 5037 1146 
L 6054 1146 
L 6054 1811 
L 1626 1811 
L 1626 1146 
L 2547 1146 
C 2362 794 2150 493 2067 397 
C 1946 250 1830 147 1715 122 
C 1805 -70 1946 -410 1990 -550 
z
" transform="scale(0.015625)"/>
      <path id="NotoSans-Bold-20" transform="scale(0.015625)"/>
      <path id="NotoSans-Bold-28" d="M 256 1754 
Q 256 2534 483 3260 
Q 710 3987 1197 4570 
L 1978 4570 
Q 1542 3968 1315 3245 
Q 1088 2522 1088 1760 
Q 1088 1018 1315 298 
Q 1542 -422 1971 -1011 
L 1197 -1011 
Q 710 -448 483 265 
Q 256 979 256 1754 
z
" transform="scale(0.015625)"/>
      <path id="NotoSans-Bold-41" d="M 3373 0 
L 3040 1088 
L 1376 1088 
L 1043 0 
L 0 0 
L 1613 4589 
L 2797 4589 
L 4416 0 
L 3373 0 
z
M 2477 2963 
Q 2445 3072 2393 3238 
Q 2342 3405 2291 3577 
Q 2240 3750 2208 3878 
Q 2176 3750 2121 3561 
Q 2067 3373 2019 3203 
Q 1971 3034 1946 2963 
L 1619 1901 
L 2810 1901 
L 2477 2963 
z
" transform="scale(0.015625)"/>
      <path id="NotoSans-Bold-50" d="M 2035 4570 
Q 2918 4570 3324 4189 
Q 3731 3808 3731 3142 
Q 3731 2746 3564 2397 
Q 3398 2048 3011 1837 
Q 2624 1626 1958 1626 
L 1542 1626 
L 1542 0 
L 576 0 
L 576 4570 
L 2035 4570 
z
M 1984 3776 
L 1542 3776 
L 1542 2419 
L 1862 2419 
Q 2272 2419 2512 2582 
Q 2752 2746 2752 3110 
Q 2752 3776 1984 3776 
z
" transform="scale(0.015625)"/>
      <path id="NotoSans-Bold-4c" d="M 576 0 
L 576 4570 
L 1542 4570 
L 1542 800 
L 3398 800 
L 3398 0 
L 576 0 
z
" transform="scale(0.015625)"/>
      <path id="NotoSans-Bold-49" d="M 2285 0 
L 205 0 
L 205 550 
L 762 806 
L 762 3763 
L 205 4019 
L 205 4570 
L 2285 4570 
L 2285 4019 
L 1728 3763 
L 1728 806 
L 2285 550 
L 2285 0 
z
" transform="scale(0.015625)"/>
      <path id="NotoSans-Bold-43" d="M 2515 3827 
Q 1958 3827 1664 3411 
Q 1370 2995 1370 2272 
Q 1370 1542 1642 1142 
Q 1914 742 2515 742 
Q 2797 742 3075 806 
Q 3354 870 3680 986 
L 3680 173 
Q 3379 51 3084 -6 
Q 2790 -64 2426 -64 
Q 1722 -64 1264 227 
Q 806 518 588 1046 
Q 371 1574 371 2278 
Q 371 2970 620 3501 
Q 870 4032 1347 4333 
Q 1824 4634 2515 4634 
Q 2854 4634 3196 4547 
Q 3539 4461 3853 4314 
L 3539 3526 
Q 3283 3648 3024 3737 
Q 2765 3827 2515 3827 
z
" transform="scale(0.015625)"/>
      <path id="NotoSans-Bold-54" d="M 2336 0 
L 1370 0 
L 1370 3763 
L 128 3763 
L 128 4570 
L 3578 4570 
L 3578 3763 
L 2336 3763 
L 2336 0 
z
" transform="scale(0.015625)"/>
      <path id="NotoSans-Bold-4f" d="M 4723 2291 
Q 4723 1581 4489 1053 
Q 4256 525 3776 230 
Q 3296 -64 2547 -64 
Q 1805 -64 1321 230 
Q 838 525 604 1056 
Q 371 1587 371 2298 
Q 371 3008 604 3533 
Q 838 4058 1321 4349 
Q 1805 4640 2554 4640 
Q 3296 4640 3776 4349 
Q 4256 4058 4489 3530 
Q 4723 3002 4723 2291 
z
M 1389 2291 
Q 1389 1574 1664 1161 
Q 1939 749 2547 749 
Q 3168 749 3437 1161 
Q 3706 1574 3706 2291 
Q 3706 3014 3437 3424 
Q 3168 3834 2554 3834 
Q 1939 3834 1664 3424 
Q 1389 3014 1389 2291 
z
" transform="scale(0.015625)"/>
      <path id="NotoSans-Bold-4e" d="M 4627 0 
L 3398 0 
L 1408 3456 
L 1382 3456 
Q 1395 3130 1411 2803 
Q 1427 2477 1440 2150 
L 1440 0 
L 576 0 
L 576 4570 
L 1798 4570 
L 3782 1146 
L 3802 1146 
Q 3795 1466 3782 1779 
Q 3770 2093 3757 2406 
L 3757 4570 
L 4627 4570 
L 4627 0 
z
" transform="scale(0.015625)"/>
      <path id="NotoSans-Bold-59" d="M 1997 2688 
L 2950 4570 
L 3994 4570 
L 2477 1779 
L 2477 0 
L 1517 0 
L 1517 1747 
L 0 4570 
L 1050 4570 
L 1997 2688 
z
" transform="scale(0.015625)"/>
      <path id="NotoSans-Bold-45" d="M 3206 0 
L 576 0 
L 576 4570 
L 3206 4570 
L 3206 3776 
L 1542 3776 
L 1542 2771 
L 3091 2771 
L 3091 1978 
L 1542 1978 
L 1542 800 
L 3206 800 
L 3206 0 
z
" transform="scale(0.015625)"/>
      <path id="NotoSans-Bold-52" d="M 1907 4570 
Q 2842 4570 3286 4230 
Q 3731 3891 3731 3200 
Q 3731 2886 3612 2652 
Q 3494 2419 3299 2256 
Q 3104 2093 2880 1990 
L 4224 0 
L 3149 0 
L 2061 1754 
L 1542 1754 
L 1542 0 
L 576 0 
L 576 4570 
L 1907 4570 
z
M 1837 3776 
L 1542 3776 
L 1542 2541 
L 1856 2541 
Q 2336 2541 2544 2701 
Q 2752 2861 2752 3174 
Q 2752 3501 2531 3638 
Q 2310 3776 1837 3776 
z
" transform="scale(0.015625)"/>
      <path id="NotoSans-Bold-29" d="M 1914 1754 
Q 1914 979 1686 265 
Q 1459 -448 973 -1011 
L 198 -1011 
Q 634 -422 858 298 
Q 1082 1018 1082 1760 
Q 1082 2522 854 3245 
Q 627 3968 192 4570 
L 973 4570 
Q 1459 3987 1686 3260 
Q 1914 2534 1914 1754 
z
" transform="scale(0.015625)"/>
     </defs>
     <use xlink:href="#NotoSansCJKjp-Bold-5e94"/>
     <use xlink:href="#NotoSansCJKjp-Bold-7528" transform="translate(99.999985 0)"/>
     <use xlink:href="#NotoSansCJKjp-Bold-5c42" transform="translate(199.999969 0)"/>
     <use xlink:href="#NotoSans-Bold-20" transform="translate(299.999954 0)"/>
     <use xlink:href="#NotoSans-Bold-28" transform="translate(325.999939 0)"/>
     <use xlink:href="#NotoSans-Bold-41" transform="translate(359.899933 0)"/>
     <use xlink:href="#NotoSans-Bold-50" transform="translate(428.899918 0)"/>
     <use xlink:href="#NotoSans-Bold-50" transform="translate(491.699905 0)"/>
     <use xlink:href="#NotoSans-Bold-4c" transform="translate(554.499893 0)"/>
     <use xlink:href="#NotoSans-Bold-49" transform="translate(610.999878 0)"/>
     <use xlink:href="#NotoSans-Bold-43" transform="translate(649.899872 0)"/>
     <use xlink:href="#NotoSans-Bold-41" transform="translate(713.599869 0)"/>
     <use xlink:href="#NotoSans-Bold-54" transform="translate(782.599854 0)"/>
     <use xlink:href="#NotoSans-Bold-49" transform="translate(840.499847 0)"/>
     <use xlink:href="#NotoSans-Bold-4f" transform="translate(879.399841 0)"/>
     <use xlink:href="#NotoSans-Bold-4e" transform="translate(958.999832 0)"/>
     <use xlink:href="#NotoSans-Bold-20" transform="translate(1040.29982 0)"/>
     <use xlink:href="#NotoSans-Bold-4c" transform="translate(1066.299805 0)"/>
     <use xlink:href="#NotoSans-Bold-41" transform="translate(1122.799789 0)"/>
     <use xlink:href="#NotoSans-Bold-59" transform="translate(1191.799774 0)"/>
     <use xlink:href="#NotoSans-Bold-45" transform="translate(1254.199768 0)"/>
     <use xlink:href="#NotoSans-Bold-52" transform="translate(1310.199753 0)"/>
     <use xlink:href="#NotoSans-Bold-29" transform="translate(1376.199738 0)"/>
    </g>
   </g>
   <g id="text_2">
    <!-- 增强层 (ENHANCEMENT LAYER) -->
    <g transform="translate(59.28 453.482156) scale(0.18 -0.18)">
     <defs>
      <path id="NotoSansCJKjp-Bold-589e" d="M 3046 3309 
C 3130 3110 3213 2842 3245 2669 
L 3686 2816 
C 3654 2970 3565 3232 3469 3424 
L 3046 3309 
z
M 4595 3430 
C 4557 3251 4467 2989 4397 2797 
L 4781 2682 
C 4877 2848 4986 3072 5107 3302 
L 4595 3430 
z
M 2861 5094 
C 2643 4634 2253 4186 1843 3891 
L 1850 3885 
L 1562 3885 
L 1562 5338 
L 819 5338 
L 819 3885 
L 230 3885 
L 230 3155 
L 819 3155 
L 819 1408 
C 557 1293 314 1197 115 1126 
L 371 358 
C 947 621 1658 954 2310 1280 
L 2118 1971 
L 1562 1722 
L 1562 3155 
L 2048 3155 
L 2048 3693 
C 2163 3571 2278 3437 2342 3354 
L 2381 3386 
L 2381 2042 
L 5811 2042 
L 5811 3450 
C 5920 3635 6138 3904 6285 4032 
C 5779 4314 5267 4813 4992 5306 
L 3437 5306 
L 3437 4928 
L 2861 5094 
z
M 2624 1818 
L 2624 -576 
L 3354 -576 
L 3354 -378 
L 4832 -378 
L 4832 -557 
L 5600 -557 
L 5600 1818 
L 2624 1818 
z
M 3354 192 
L 3354 480 
L 4832 480 
L 4832 192 
L 3354 192 
z
M 3354 986 
L 3354 1267 
L 4832 1267 
L 4832 986 
L 3354 986 
z
M 2976 3526 
L 3776 3526 
L 3776 2592 
L 2976 2592 
L 2976 3526 
z
M 4314 3526 
L 5184 3526 
L 5184 2592 
L 4314 2592 
L 4314 3526 
z
M 3027 4077 
C 3181 4275 3322 4486 3437 4698 
L 3437 4659 
L 4608 4659 
C 4749 4461 4909 4262 5082 4077 
L 3027 4077 
z
" transform="scale(0.015625)"/>
      <path id="NotoSansCJKjp-Bold-5f3a" d="M 3565 4474 
L 4992 4474 
L 4992 3910 
L 3565 3910 
L 3565 4474 
z
M 2874 5101 
L 2874 3283 
L 3917 3283 
L 3917 2931 
L 2733 2931 
L 2733 1139 
L 3917 1139 
L 3917 378 
L 2464 314 
L 2554 -435 
C 3341 -384 4429 -301 5472 -218 
C 5530 -365 5574 -493 5606 -608 
L 6285 -314 
C 6170 83 5850 678 5555 1126 
L 4922 864 
L 5158 448 
L 4646 422 
L 4646 1139 
L 5901 1139 
L 5901 2931 
L 4646 2931 
L 4646 3283 
L 5715 3283 
L 5715 5101 
L 2874 5101 
z
M 3398 2317 
L 3917 2317 
L 3917 1754 
L 3398 1754 
L 3398 2317 
z
M 4646 2317 
L 5203 2317 
L 5203 1754 
L 4646 1754 
L 4646 2317 
z
M 461 3654 
C 410 2963 307 2086 205 1530 
L 902 1453 
L 928 1638 
L 1690 1638 
C 1638 698 1555 301 1453 192 
C 1395 122 1331 115 1229 115 
C 1107 115 858 115 595 141 
C 710 -51 794 -352 813 -563 
C 1120 -576 1421 -570 1594 -544 
C 1805 -518 1952 -461 2099 -288 
C 2285 -64 2381 538 2464 2029 
C 2470 2118 2477 2323 2477 2323 
L 1011 2323 
L 1075 2957 
L 2400 2957 
L 2400 5107 
L 333 5107 
L 333 4416 
L 1690 4416 
L 1690 3654 
L 461 3654 
z
" transform="scale(0.015625)"/>
      <path id="NotoSans-Bold-48" d="M 4320 0 
L 3354 0 
L 3354 1971 
L 1542 1971 
L 1542 0 
L 576 0 
L 576 4570 
L 1542 4570 
L 1542 2778 
L 3354 2778 
L 3354 4570 
L 4320 4570 
L 4320 0 
z
" transform="scale(0.015625)"/>
      <path id="NotoSans-Bold-4d" d="M 2509 0 
L 1408 3584 
L 1382 3584 
Q 1389 3456 1401 3200 
Q 1414 2944 1427 2653 
Q 1440 2362 1440 2125 
L 1440 0 
L 576 0 
L 576 4570 
L 1894 4570 
L 2976 1075 
L 2995 1075 
L 4141 4570 
L 5459 4570 
L 5459 0 
L 4557 0 
L 4557 2163 
Q 4557 2381 4566 2662 
Q 4576 2944 4585 3197 
Q 4595 3450 4602 3578 
L 4576 3578 
L 3398 0 
L 2509 0 
z
" transform="scale(0.015625)"/>
     </defs>
     <use xlink:href="#NotoSansCJKjp-Bold-589e"/>
     <use xlink:href="#NotoSansCJKjp-Bold-5f3a" transform="translate(99.999985 0)"/>
     <use xlink:href="#NotoSansCJKjp-Bold-5c42" transform="translate(199.999969 0)"/>
     <use xlink:href="#NotoSans-Bold-20" transform="translate(299.999954 0)"/>
     <use xlink:href="#NotoSans-Bold-28" transform="translate(325.999939 0)"/>
     <use xlink:href="#NotoSans-Bold-45" transform="translate(359.899933 0)"/>
     <use xlink:href="#NotoSans-Bold-4e" transform="translate(415.899918 0)"/>
     <use xlink:href="#NotoSans-Bold-48" transform="translate(497.199905 0)"/>
     <use xlink:href="#NotoSans-Bold-41" transform="translate(573.69989 0)"/>
     <use xlink:href="#NotoSans-Bold-4e" transform="translate(642.699875 0)"/>
     <use xlink:href="#NotoSans-Bold-43" transform="translate(723.999863 0)"/>
     <use xlink:href="#NotoSans-Bold-45" transform="translate(787.69986 0)"/>
     <use xlink:href="#NotoSans-Bold-4d" transform="translate(843.699844 0)"/>
     <use xlink:href="#NotoSans-Bold-45" transform="translate(937.999832 0)"/>
     <use xlink:href="#NotoSans-Bold-4e" transform="translate(993.999817 0)"/>
     <use xlink:href="#NotoSans-Bold-54" transform="translate(1075.299805 0)"/>
     <use xlink:href="#NotoSans-Bold-20" transform="translate(1133.199799 0)"/>
     <use xlink:href="#NotoSans-Bold-4c" transform="translate(1159.199783 0)"/>
     <use xlink:href="#NotoSans-Bold-41" transform="translate(1215.699768 0)"/>
     <use xlink:href="#NotoSans-Bold-59" transform="translate(1284.699753 0)"/>
     <use xlink:href="#NotoSans-Bold-45" transform="translate(1347.099747 0)"/>
     <use xlink:href="#NotoSans-Bold-52" transform="translate(1403.099731 0)"/>
     <use xlink:href="#NotoSans-Bold-29" transform="translate(1469.099716 0)"/>
    </g>
   </g>
   <g id="text_3">
    <!-- 基础层 (FOUNDATION LAYER) -->
    <g transform="translate(59.28 686.401875) scale(0.18 -0.18)">
     <defs>
      <path id="NotoSansCJKjp-Bold-57fa" d="M 4218 5434 
L 4218 4954 
L 2202 4954 
L 2202 5440 
L 1434 5440 
L 1434 4954 
L 550 4954 
L 550 4333 
L 1434 4333 
L 1434 2413 
L 205 2413 
L 205 1786 
L 1440 1786 
C 1088 1446 621 1152 147 979 
C 307 838 531 570 640 397 
C 998 557 1350 781 1664 1056 
L 1664 646 
L 2797 646 
L 2797 230 
L 781 230 
L 781 -397 
L 5683 -397 
L 5683 230 
L 3578 230 
L 3578 646 
L 4749 646 
L 4749 1120 
C 5056 845 5408 614 5760 454 
C 5869 634 6099 909 6266 1043 
C 5811 1203 5363 1478 5011 1786 
L 6195 1786 
L 6195 2413 
L 5005 2413 
L 5005 4333 
L 5882 4333 
L 5882 4954 
L 5005 4954 
L 5005 5434 
L 4218 5434 
z
M 2202 4333 
L 4218 4333 
L 4218 4058 
L 2202 4058 
L 2202 4333 
z
M 2202 3520 
L 4218 3520 
L 4218 3238 
L 2202 3238 
L 2202 3520 
z
M 2202 2701 
L 4218 2701 
L 4218 2413 
L 2202 2413 
L 2202 2701 
z
M 2797 1658 
L 2797 1254 
L 1875 1254 
C 2048 1421 2202 1600 2330 1786 
L 4147 1786 
C 4282 1600 4435 1421 4608 1254 
L 3578 1254 
L 3578 1658 
L 2797 1658 
z
" transform="scale(0.015625)"/>
      <path id="NotoSansCJKjp-Bold-7840" d="M 275 5152 
L 275 4461 
L 960 4461 
C 800 3610 538 2822 134 2291 
C 237 2067 378 1581 403 1382 
C 493 1491 582 1613 666 1741 
L 666 -269 
L 1293 -269 
L 1293 211 
L 2432 211 
L 2432 3162 
L 1331 3162 
C 1472 3578 1587 4019 1677 4461 
L 2560 4461 
L 2560 5152 
L 275 5152 
z
M 1293 2490 
L 1798 2490 
L 1798 877 
L 1293 877 
L 1293 2490 
z
M 2662 2291 
L 2662 -211 
L 5293 -211 
L 5293 -550 
L 6035 -550 
L 6035 2278 
L 5293 2278 
L 5293 531 
L 4730 531 
L 4730 2573 
L 5894 2573 
L 5894 4806 
L 5165 4806 
L 5165 3251 
L 4730 3251 
L 4730 5408 
L 3968 5408 
L 3968 3251 
L 3488 3251 
L 3488 4806 
L 2797 4806 
L 2797 2573 
L 3968 2573 
L 3968 531 
L 3430 531 
L 3430 2291 
L 2662 2291 
z
" transform="scale(0.015625)"/>
      <path id="NotoSans-Bold-46" d="M 1530 0 
L 576 0 
L 576 4570 
L 3194 4570 
L 3194 3776 
L 1530 3776 
L 1530 2598 
L 3078 2598 
L 3078 1805 
L 1530 1805 
L 1530 0 
z
" transform="scale(0.015625)"/>
      <path id="NotoSans-Bold-55" d="M 4294 1613 
Q 4294 1139 4086 758 
Q 3878 378 3459 157 
Q 3040 -64 2400 -64 
Q 1491 -64 1017 400 
Q 544 864 544 1626 
L 544 4570 
L 1510 4570 
L 1510 1773 
Q 1510 1210 1740 979 
Q 1971 749 2426 749 
Q 2899 749 3113 998 
Q 3328 1248 3328 1779 
L 3328 4570 
L 4294 4570 
L 4294 1613 
z
" transform="scale(0.015625)"/>
      <path id="NotoSans-Bold-44" d="M 4365 2330 
Q 4365 1171 3709 585 
Q 3053 0 1869 0 
L 576 0 
L 576 4570 
L 2010 4570 
Q 2726 4570 3254 4314 
Q 3782 4058 4073 3562 
Q 4365 3066 4365 2330 
z
M 3360 2304 
Q 3360 3066 3027 3421 
Q 2694 3776 2061 3776 
L 1542 3776 
L 1542 800 
L 1958 800 
Q 3360 800 3360 2304 
z
" transform="scale(0.015625)"/>
     </defs>
     <use xlink:href="#NotoSansCJKjp-Bold-57fa"/>
     <use xlink:href="#NotoSansCJKjp-Bold-7840" transform="translate(99.999985 0)"/>
     <use xlink:href="#NotoSansCJKjp-Bold-5c42" transform="translate(199.999969 0)"/>
     <use xlink:href="#NotoSans-Bold-20" transform="translate(299.999954 0)"/>
     <use xlink:href="#NotoSans-Bold-28" transform="translate(325.999939 0)"/>
     <use xlink:href="#NotoSans-Bold-46" transform="translate(359.899933 0)"/>
     <use xlink:href="#NotoSans-Bold-4f" transform="translate(414.799927 0)"/>
     <use xlink:href="#NotoSans-Bold-55" transform="translate(494.399918 0)"/>
     <use xlink:href="#NotoSans-Bold-4e" transform="translate(569.999908 0)"/>
     <use xlink:href="#NotoSans-Bold-44" transform="translate(651.299896 0)"/>
     <use xlink:href="#NotoSans-Bold-41" transform="translate(725.299881 0)"/>
     <use xlink:href="#NotoSans-Bold-54" transform="translate(794.299866 0)"/>
     <use xlink:href="#NotoSans-Bold-49" transform="translate(852.19986 0)"/>
     <use xlink:href="#NotoSans-Bold-4f" transform="translate(891.099854 0)"/>
     <use xlink:href="#NotoSans-Bold-4e" transform="translate(970.699844 0)"/>
     <use xlink:href="#NotoSans-Bold-20" transform="translate(1051.999832 0)"/>
     <use xlink:href="#NotoSans-Bold-4c" transform="translate(1077.999817 0)"/>
     <use xlink:href="#NotoSans-Bold-41" transform="translate(1134.499802 0)"/>
     <use xlink:href="#NotoSans-Bold-59" transform="translate(1203.499786 0)"/>
     <use xlink:href="#NotoSans-Bold-45" transform="translate(1265.89978 0)"/>
     <use xlink:href="#NotoSans-Bold-52" transform="translate(1321.899765 0)"/>
     <use xlink:href="#NotoSans-Bold-29" transform="translate(1387.89975 0)"/>
    </g>
   </g>
   <g id="text_4">
    <!-- Agent -->
    <g style="fill: #ffffff" transform="translate(193.77 178.898156) scale(0.12 -0.12)">
     <defs>
      <path id="NotoSans-Bold-67" d="M 1632 3558 
Q 2278 3558 2643 3046 
L 2669 3046 
L 2746 3494 
L 3552 3494 
L 3552 -6 
Q 3552 -755 3110 -1145 
Q 2669 -1536 1805 -1536 
Q 1434 -1536 1117 -1491 
Q 800 -1446 499 -1331 
L 499 -570 
Q 1146 -838 1862 -838 
Q 2598 -838 2598 -45 
L 2598 26 
Q 2598 134 2608 249 
Q 2618 365 2624 454 
L 2598 454 
Q 2419 179 2169 57 
Q 1920 -64 1606 -64 
Q 986 -64 637 413 
Q 288 890 288 1741 
Q 288 2598 646 3078 
Q 1005 3558 1632 3558 
z
M 1933 2784 
Q 1261 2784 1261 1728 
Q 1261 685 1946 685 
Q 2310 685 2486 893 
Q 2662 1101 2662 1619 
L 2662 1734 
Q 2662 2298 2489 2541 
Q 2317 2784 1933 2784 
z
" transform="scale(0.015625)"/>
      <path id="NotoSans-Bold-65" d="M 1939 3558 
Q 2662 3558 3084 3145 
Q 3507 2733 3507 1971 
L 3507 1510 
L 1254 1510 
Q 1267 1107 1494 876 
Q 1722 646 2125 646 
Q 2464 646 2739 713 
Q 3014 781 3309 922 
L 3309 186 
Q 3053 58 2768 -3 
Q 2483 -64 2080 -64 
Q 1555 -64 1152 131 
Q 749 326 518 723 
Q 288 1120 288 1722 
Q 288 2336 496 2742 
Q 704 3149 1075 3353 
Q 1446 3558 1939 3558 
z
M 1946 2880 
Q 1670 2880 1488 2701 
Q 1306 2522 1274 2144 
L 2611 2144 
Q 2605 2464 2445 2672 
Q 2285 2880 1946 2880 
z
" transform="scale(0.015625)"/>
      <path id="NotoSans-Bold-6e" d="M 2483 3558 
Q 3046 3558 3385 3254 
Q 3725 2950 3725 2278 
L 3725 0 
L 2771 0 
L 2771 2042 
Q 2771 2419 2636 2608 
Q 2502 2797 2208 2797 
Q 1773 2797 1613 2499 
Q 1453 2202 1453 1645 
L 1453 0 
L 499 0 
L 499 3494 
L 1229 3494 
L 1357 3046 
L 1408 3046 
Q 1574 3315 1865 3436 
Q 2157 3558 2483 3558 
z
" transform="scale(0.015625)"/>
      <path id="NotoSans-Bold-74" d="M 1971 698 
Q 2131 698 2278 730 
Q 2426 762 2573 806 
L 2573 96 
Q 2419 32 2192 -16 
Q 1965 -64 1696 -64 
Q 1382 -64 1136 38 
Q 890 141 746 393 
Q 602 646 602 1094 
L 602 2778 
L 147 2778 
L 147 3181 
L 672 3501 
L 947 4237 
L 1555 4237 
L 1555 3494 
L 2534 3494 
L 2534 2778 
L 1555 2778 
L 1555 1094 
Q 1555 896 1670 797 
Q 1786 698 1971 698 
z
" transform="scale(0.015625)"/>
     </defs>
     <use xlink:href="#NotoSans-Bold-41"/>
     <use xlink:href="#NotoSans-Bold-67" transform="translate(68.999985 0)"/>
     <use xlink:href="#NotoSans-Bold-65" transform="translate(132.299973 0)"/>
     <use xlink:href="#NotoSans-Bold-6e" transform="translate(191.399963 0)"/>
     <use xlink:href="#NotoSans-Bold-74" transform="translate(257.09996 0)"/>
    </g>
    <!-- Problem Solver -->
    <g style="fill: #ffffff" transform="translate(166.433438 192.722156) scale(0.12 -0.12)">
     <defs>
      <path id="NotoSans-Bold-72" d="M 2451 3558 
Q 2522 3558 2618 3552 
Q 2714 3546 2771 3533 
L 2701 2637 
Q 2656 2650 2569 2659 
Q 2483 2669 2419 2669 
Q 2176 2669 1952 2582 
Q 1728 2496 1590 2304 
Q 1453 2112 1453 1779 
L 1453 0 
L 499 0 
L 499 3494 
L 1222 3494 
L 1363 2906 
L 1408 2906 
Q 1562 3174 1830 3366 
Q 2099 3558 2451 3558 
z
" transform="scale(0.015625)"/>
      <path id="NotoSans-Bold-6f" d="M 3674 1754 
Q 3674 883 3216 409 
Q 2758 -64 1971 -64 
Q 1485 -64 1104 147 
Q 723 358 505 764 
Q 288 1171 288 1754 
Q 288 2624 742 3091 
Q 1197 3558 1990 3558 
Q 2483 3558 2860 3347 
Q 3238 3136 3456 2736 
Q 3674 2336 3674 1754 
z
M 1261 1754 
Q 1261 1235 1430 969 
Q 1600 704 1984 704 
Q 2362 704 2531 969 
Q 2701 1235 2701 1754 
Q 2701 2272 2531 2531 
Q 2362 2790 1978 2790 
Q 1600 2790 1430 2531 
Q 1261 2272 1261 1754 
z
" transform="scale(0.015625)"/>
      <path id="NotoSans-Bold-62" d="M 1453 3731 
Q 1453 3533 1440 3341 
Q 1427 3149 1414 3040 
L 1453 3040 
Q 1594 3258 1830 3408 
Q 2067 3558 2445 3558 
Q 3034 3558 3398 3100 
Q 3763 2643 3763 1754 
Q 3763 858 3392 397 
Q 3021 -64 2419 -64 
Q 2035 -64 1814 73 
Q 1594 211 1453 384 
L 1389 384 
L 1229 0 
L 499 0 
L 499 4864 
L 1453 4864 
L 1453 3731 
z
M 2138 2797 
Q 1766 2797 1616 2566 
Q 1466 2336 1453 1862 
L 1453 1760 
Q 1453 1254 1603 982 
Q 1754 710 2150 710 
Q 2445 710 2617 982 
Q 2790 1254 2790 1766 
Q 2790 2278 2614 2537 
Q 2438 2797 2138 2797 
z
" transform="scale(0.015625)"/>
      <path id="NotoSans-Bold-6c" d="M 1453 0 
L 499 0 
L 499 4864 
L 1453 4864 
L 1453 0 
z
" transform="scale(0.015625)"/>
      <path id="NotoSans-Bold-6d" d="M 4602 3558 
Q 5197 3558 5501 3254 
Q 5805 2950 5805 2278 
L 5805 0 
L 4851 0 
L 4851 2042 
Q 4851 2797 4326 2797 
Q 3949 2797 3789 2528 
Q 3629 2259 3629 1754 
L 3629 0 
L 2675 0 
L 2675 2042 
Q 2675 2797 2150 2797 
Q 1754 2797 1603 2499 
Q 1453 2202 1453 1645 
L 1453 0 
L 499 0 
L 499 3494 
L 1229 3494 
L 1357 3046 
L 1408 3046 
Q 1568 3315 1846 3436 
Q 2125 3558 2426 3558 
Q 2810 3558 3078 3433 
Q 3347 3309 3488 3046 
L 3571 3046 
Q 3731 3315 4016 3436 
Q 4301 3558 4602 3558 
z
" transform="scale(0.015625)"/>
      <path id="NotoSans-Bold-53" d="M 3270 1267 
Q 3270 659 2832 297 
Q 2394 -64 1587 -64 
Q 864 -64 294 211 
L 294 1114 
Q 621 973 969 854 
Q 1318 736 1664 736 
Q 2022 736 2172 873 
Q 2323 1011 2323 1222 
Q 2323 1395 2204 1516 
Q 2086 1638 1888 1744 
Q 1690 1850 1434 1971 
Q 1274 2048 1088 2153 
Q 902 2259 732 2416 
Q 563 2573 454 2797 
Q 346 3021 346 3334 
Q 346 3949 762 4291 
Q 1178 4634 1894 4634 
Q 2253 4634 2576 4550 
Q 2899 4467 3251 4314 
L 2938 3558 
Q 2624 3686 2374 3756 
Q 2125 3827 1862 3827 
Q 1587 3827 1440 3699 
Q 1293 3571 1293 3366 
Q 1293 3123 1510 2982 
Q 1728 2842 2157 2637 
Q 2509 2470 2755 2291 
Q 3002 2112 3136 1869 
Q 3270 1626 3270 1267 
z
" transform="scale(0.015625)"/>
      <path id="NotoSans-Bold-76" d="M 1331 0 
L 0 3494 
L 998 3494 
L 1670 1504 
Q 1728 1325 1763 1133 
Q 1798 941 1805 787 
L 1830 787 
Q 1850 1133 1971 1504 
L 2643 3494 
L 3642 3494 
L 2310 0 
L 1331 0 
z
" transform="scale(0.015625)"/>
     </defs>
     <use xlink:href="#NotoSans-Bold-50"/>
     <use xlink:href="#NotoSans-Bold-72" transform="translate(62.799988 0)"/>
     <use xlink:href="#NotoSans-Bold-6f" transform="translate(108.199982 0)"/>
     <use xlink:href="#NotoSans-Bold-62" transform="translate(170.099976 0)"/>
     <use xlink:href="#NotoSans-Bold-6c" transform="translate(233.399963 0)"/>
     <use xlink:href="#NotoSans-Bold-65" transform="translate(263.899948 0)"/>
     <use xlink:href="#NotoSans-Bold-6d" transform="translate(322.999939 0)"/>
     <use xlink:href="#NotoSans-Bold-20" transform="translate(421.199921 0)"/>
     <use xlink:href="#NotoSans-Bold-53" transform="translate(447.199905 0)"/>
     <use xlink:href="#NotoSans-Bold-6f" transform="translate(502.299896 0)"/>
     <use xlink:href="#NotoSans-Bold-6c" transform="translate(564.19989 0)"/>
     <use xlink:href="#NotoSans-Bold-76" transform="translate(594.699875 0)"/>
     <use xlink:href="#NotoSans-Bold-65" transform="translate(651.599869 0)"/>
     <use xlink:href="#NotoSans-Bold-72" transform="translate(710.69986 0)"/>
    </g>
   </g>
   <g id="text_5">
    <!-- Proactive -->
    <g style="fill: #ffffff" transform="translate(332.290313 178.898156) scale(0.12 -0.12)">
     <defs>
      <path id="NotoSans-Bold-61" d="M 1933 3565 
Q 2637 3565 3011 3261 
Q 3386 2957 3386 2330 
L 3386 0 
L 2720 0 
L 2534 474 
L 2509 474 
Q 2285 192 2035 64 
Q 1786 -64 1350 -64 
Q 883 -64 576 208 
Q 269 480 269 1043 
Q 269 1600 659 1865 
Q 1050 2131 1830 2157 
L 2438 2176 
L 2438 2330 
Q 2438 2605 2294 2733 
Q 2150 2861 1894 2861 
Q 1638 2861 1395 2787 
Q 1152 2714 909 2605 
L 595 3251 
Q 877 3398 1219 3481 
Q 1562 3565 1933 3565 
z
M 2067 1606 
Q 1606 1594 1427 1440 
Q 1248 1286 1248 1037 
Q 1248 819 1376 726 
Q 1504 634 1709 634 
Q 2016 634 2227 816 
Q 2438 998 2438 1331 
L 2438 1619 
L 2067 1606 
z
" transform="scale(0.015625)"/>
      <path id="NotoSans-Bold-63" d="M 1920 -64 
Q 1139 -64 713 368 
Q 288 800 288 1728 
Q 288 2368 505 2771 
Q 723 3174 1110 3366 
Q 1498 3558 2003 3558 
Q 2362 3558 2627 3488 
Q 2893 3418 3091 3322 
L 2810 2586 
Q 2586 2675 2390 2732 
Q 2195 2790 2003 2790 
Q 1261 2790 1261 1734 
Q 1261 1210 1456 960 
Q 1651 710 2003 710 
Q 2304 710 2534 790 
Q 2765 870 2982 1011 
L 2982 198 
Q 2765 58 2525 -3 
Q 2285 -64 1920 -64 
z
" transform="scale(0.015625)"/>
      <path id="NotoSans-Bold-69" d="M 979 4864 
Q 1190 4864 1344 4765 
Q 1498 4666 1498 4397 
Q 1498 4134 1344 4032 
Q 1190 3930 979 3930 
Q 762 3930 611 4032 
Q 461 4134 461 4397 
Q 461 4666 611 4765 
Q 762 4864 979 4864 
z
M 1453 3494 
L 1453 0 
L 499 0 
L 499 3494 
L 1453 3494 
z
" transform="scale(0.015625)"/>
     </defs>
     <use xlink:href="#NotoSans-Bold-50"/>
     <use xlink:href="#NotoSans-Bold-72" transform="translate(62.799988 0)"/>
     <use xlink:href="#NotoSans-Bold-6f" transform="translate(108.199982 0)"/>
     <use xlink:href="#NotoSans-Bold-61" transform="translate(170.099976 0)"/>
     <use xlink:href="#NotoSans-Bold-63" transform="translate(230.499969 0)"/>
     <use xlink:href="#NotoSans-Bold-74" transform="translate(281.899963 0)"/>
     <use xlink:href="#NotoSans-Bold-69" transform="translate(325.299957 0)"/>
     <use xlink:href="#NotoSans-Bold-76" transform="translate(355.799942 0)"/>
     <use xlink:href="#NotoSans-Bold-65" transform="translate(412.699936 0)"/>
    </g>
    <!-- Problem Solver -->
    <g style="fill: #ffffff" transform="translate(315.233438 192.722156) scale(0.12 -0.12)">
     <use xlink:href="#NotoSans-Bold-50"/>
     <use xlink:href="#NotoSans-Bold-72" transform="translate(62.799988 0)"/>
     <use xlink:href="#NotoSans-Bold-6f" transform="translate(108.199982 0)"/>
     <use xlink:href="#NotoSans-Bold-62" transform="translate(170.099976 0)"/>
     <use xlink:href="#NotoSans-Bold-6c" transform="translate(233.399963 0)"/>
     <use xlink:href="#NotoSans-Bold-65" transform="translate(263.899948 0)"/>
     <use xlink:href="#NotoSans-Bold-6d" transform="translate(322.999939 0)"/>
     <use xlink:href="#NotoSans-Bold-20" transform="translate(421.199921 0)"/>
     <use xlink:href="#NotoSans-Bold-53" transform="translate(447.199905 0)"/>
     <use xlink:href="#NotoSans-Bold-6f" transform="translate(502.299896 0)"/>
     <use xlink:href="#NotoSans-Bold-6c" transform="translate(564.19989 0)"/>
     <use xlink:href="#NotoSans-Bold-76" transform="translate(594.699875 0)"/>
     <use xlink:href="#NotoSans-Bold-65" transform="translate(651.599869 0)"/>
     <use xlink:href="#NotoSans-Bold-72" transform="translate(710.69986 0)"/>
    </g>
   </g>
   <g id="text_6">
    <!-- Release -->
    <g style="fill: #ffffff" transform="translate(486.366562 178.898156) scale(0.12 -0.12)">
     <defs>
      <path id="NotoSans-Bold-73" d="M 2938 1037 
Q 2938 506 2563 221 
Q 2189 -64 1446 -64 
Q 1082 -64 819 -16 
Q 557 32 294 141 
L 294 928 
Q 576 800 902 717 
Q 1229 634 1478 634 
Q 1760 634 1878 717 
Q 1997 800 1997 934 
Q 1997 1024 1949 1094 
Q 1901 1165 1741 1254 
Q 1581 1344 1242 1485 
Q 915 1626 704 1763 
Q 493 1901 390 2096 
Q 288 2291 288 2586 
Q 288 3072 665 3315 
Q 1043 3558 1670 3558 
Q 1997 3558 2291 3494 
Q 2586 3430 2899 3283 
L 2611 2598 
Q 2355 2707 2124 2780 
Q 1894 2854 1658 2854 
Q 1235 2854 1235 2624 
Q 1235 2541 1289 2473 
Q 1344 2406 1501 2329 
Q 1658 2253 1965 2125 
Q 2266 2003 2483 1872 
Q 2701 1741 2819 1545 
Q 2938 1350 2938 1037 
z
" transform="scale(0.015625)"/>
     </defs>
     <use xlink:href="#NotoSans-Bold-52"/>
     <use xlink:href="#NotoSans-Bold-65" transform="translate(65.999985 0)"/>
     <use xlink:href="#NotoSans-Bold-6c" transform="translate(125.099976 0)"/>
     <use xlink:href="#NotoSans-Bold-65" transform="translate(155.59996 0)"/>
     <use xlink:href="#NotoSans-Bold-61" transform="translate(214.699951 0)"/>
     <use xlink:href="#NotoSans-Bold-73" transform="translate(275.099945 0)"/>
     <use xlink:href="#NotoSans-Bold-65" transform="translate(324.799942 0)"/>
    </g>
    <!-- Manager -->
    <g style="fill: #ffffff" transform="translate(482.483437 192.722156) scale(0.12 -0.12)">
     <use xlink:href="#NotoSans-Bold-4d"/>
     <use xlink:href="#NotoSans-Bold-61" transform="translate(94.299988 0)"/>
     <use xlink:href="#NotoSans-Bold-6e" transform="translate(154.699982 0)"/>
     <use xlink:href="#NotoSans-Bold-61" transform="translate(220.399979 0)"/>
     <use xlink:href="#NotoSans-Bold-67" transform="translate(280.799973 0)"/>
     <use xlink:href="#NotoSans-Bold-65" transform="translate(344.09996 0)"/>
     <use xlink:href="#NotoSans-Bold-72" transform="translate(403.199951 0)"/>
    </g>
   </g>
   <g id="text_7">
    <!-- Thought Action -->
    <g style="fill: #ffffff" transform="translate(611.907188 178.898156) scale(0.12 -0.12)">
     <defs>
      <path id="NotoSans-Bold-68" d="M 1453 3872 
Q 1453 3616 1437 3379 
Q 1421 3142 1408 3046 
L 1459 3046 
Q 1626 3315 1888 3436 
Q 2150 3558 2470 3558 
Q 3040 3558 3382 3254 
Q 3725 2950 3725 2278 
L 3725 0 
L 2771 0 
L 2771 2042 
Q 2771 2797 2208 2797 
Q 1779 2797 1616 2499 
Q 1453 2202 1453 1645 
L 1453 0 
L 499 0 
L 499 4864 
L 1453 4864 
L 1453 3872 
z
" transform="scale(0.015625)"/>
      <path id="NotoSans-Bold-75" d="M 3706 3494 
L 3706 0 
L 2976 0 
L 2848 448 
L 2797 448 
Q 2630 179 2339 57 
Q 2048 -64 1722 -64 
Q 1158 -64 819 240 
Q 480 544 480 1216 
L 480 3494 
L 1434 3494 
L 1434 1453 
Q 1434 1082 1568 890 
Q 1702 698 1997 698 
Q 2432 698 2592 995 
Q 2752 1293 2752 1850 
L 2752 3494 
L 3706 3494 
z
" transform="scale(0.015625)"/>
     </defs>
     <use xlink:href="#NotoSans-Bold-54"/>
     <use xlink:href="#NotoSans-Bold-68" transform="translate(57.899994 0)"/>
     <use xlink:href="#NotoSans-Bold-6f" transform="translate(123.599991 0)"/>
     <use xlink:href="#NotoSans-Bold-75" transform="translate(185.499985 0)"/>
     <use xlink:href="#NotoSans-Bold-67" transform="translate(251.199982 0)"/>
     <use xlink:href="#NotoSans-Bold-68" transform="translate(314.499969 0)"/>
     <use xlink:href="#NotoSans-Bold-74" transform="translate(380.199966 0)"/>
     <use xlink:href="#NotoSans-Bold-20" transform="translate(423.59996 0)"/>
     <use xlink:href="#NotoSans-Bold-41" transform="translate(449.599945 0)"/>
     <use xlink:href="#NotoSans-Bold-63" transform="translate(518.59993 0)"/>
     <use xlink:href="#NotoSans-Bold-74" transform="translate(569.999924 0)"/>
     <use xlink:href="#NotoSans-Bold-69" transform="translate(613.399918 0)"/>
     <use xlink:href="#NotoSans-Bold-6f" transform="translate(643.899902 0)"/>
     <use xlink:href="#NotoSans-Bold-6e" transform="translate(705.799896 0)"/>
    </g>
    <!-- Recorder -->
    <g style="fill: #ffffff" transform="translate(631.103438 192.722156) scale(0.12 -0.12)">
     <defs>
      <path id="NotoSans-Bold-64" d="M 1606 -64 
Q 1024 -64 656 393 
Q 288 851 288 1741 
Q 288 2637 659 3097 
Q 1030 3558 1632 3558 
Q 2010 3558 2253 3411 
Q 2496 3264 2637 3046 
L 2669 3046 
Q 2650 3149 2624 3344 
Q 2598 3539 2598 3744 
L 2598 4864 
L 3552 4864 
L 3552 0 
L 2822 0 
L 2637 454 
L 2598 454 
Q 2458 237 2221 86 
Q 1984 -64 1606 -64 
z
M 1939 698 
Q 2336 698 2496 931 
Q 2656 1165 2662 1632 
L 2662 1734 
Q 2662 2246 2505 2515 
Q 2349 2784 1926 2784 
Q 1613 2784 1433 2512 
Q 1254 2240 1254 1728 
Q 1254 1216 1433 957 
Q 1613 698 1939 698 
z
" transform="scale(0.015625)"/>
     </defs>
     <use xlink:href="#NotoSans-Bold-52"/>
     <use xlink:href="#NotoSans-Bold-65" transform="translate(65.999985 0)"/>
     <use xlink:href="#NotoSans-Bold-63" transform="translate(125.099976 0)"/>
     <use xlink:href="#NotoSans-Bold-6f" transform="translate(176.499969 0)"/>
     <use xlink:href="#NotoSans-Bold-72" transform="translate(238.399963 0)"/>
     <use xlink:href="#NotoSans-Bold-64" transform="translate(283.799957 0)"/>
     <use xlink:href="#NotoSans-Bold-65" transform="translate(347.099945 0)"/>
     <use xlink:href="#NotoSans-Bold-72" transform="translate(406.199936 0)"/>
    </g>
   </g>
   <g id="text_8">
    <!-- Supermemory -->
    <g style="fill: #ffffff" transform="translate(764.50125 178.898156) scale(0.12 -0.12)">
     <defs>
      <path id="NotoSans-Bold-70" d="M 2445 3558 
Q 3034 3558 3398 3100 
Q 3763 2643 3763 1754 
Q 3763 864 3385 400 
Q 3008 -64 2419 -64 
Q 2042 -64 1818 73 
Q 1594 211 1453 384 
L 1402 384 
Q 1453 115 1453 -128 
L 1453 -1536 
L 499 -1536 
L 499 3494 
L 1274 3494 
L 1408 3040 
L 1453 3040 
Q 1594 3251 1830 3404 
Q 2067 3558 2445 3558 
z
M 2138 2797 
Q 1766 2797 1616 2566 
Q 1466 2336 1453 1862 
L 1453 1760 
Q 1453 1254 1603 982 
Q 1754 710 2150 710 
Q 2477 710 2633 982 
Q 2790 1254 2790 1766 
Q 2790 2797 2138 2797 
z
" transform="scale(0.015625)"/>
      <path id="NotoSans-Bold-79" d="M 0 3494 
L 1043 3494 
L 1702 1530 
Q 1754 1389 1779 1238 
Q 1805 1088 1818 922 
L 1837 922 
Q 1856 1088 1891 1238 
Q 1926 1389 1971 1530 
L 2618 3494 
L 3642 3494 
L 2163 -448 
Q 1965 -992 1584 -1264 
Q 1203 -1536 704 -1536 
Q 544 -1536 425 -1520 
Q 307 -1504 218 -1485 
L 218 -730 
Q 288 -742 387 -755 
Q 486 -768 595 -768 
Q 896 -768 1072 -585 
Q 1248 -403 1331 -147 
L 1389 26 
L 0 3494 
z
" transform="scale(0.015625)"/>
     </defs>
     <use xlink:href="#NotoSans-Bold-53"/>
     <use xlink:href="#NotoSans-Bold-75" transform="translate(55.099991 0)"/>
     <use xlink:href="#NotoSans-Bold-70" transform="translate(120.799988 0)"/>
     <use xlink:href="#NotoSans-Bold-65" transform="translate(184.099976 0)"/>
     <use xlink:href="#NotoSans-Bold-72" transform="translate(243.199966 0)"/>
     <use xlink:href="#NotoSans-Bold-6d" transform="translate(288.59996 0)"/>
     <use xlink:href="#NotoSans-Bold-65" transform="translate(386.799942 0)"/>
     <use xlink:href="#NotoSans-Bold-6d" transform="translate(445.899933 0)"/>
     <use xlink:href="#NotoSans-Bold-6f" transform="translate(544.099915 0)"/>
     <use xlink:href="#NotoSans-Bold-72" transform="translate(605.999908 0)"/>
     <use xlink:href="#NotoSans-Bold-79" transform="translate(651.399902 0)"/>
    </g>
    <!-- Integration -->
    <g style="fill: #ffffff" transform="translate(772.335938 192.722156) scale(0.12 -0.12)">
     <use xlink:href="#NotoSans-Bold-49"/>
     <use xlink:href="#NotoSans-Bold-6e" transform="translate(38.899994 0)"/>
     <use xlink:href="#NotoSans-Bold-74" transform="translate(104.599991 0)"/>
     <use xlink:href="#NotoSans-Bold-65" transform="translate(147.999985 0)"/>
     <use xlink:href="#NotoSans-Bold-67" transform="translate(207.099976 0)"/>
     <use xlink:href="#NotoSans-Bold-72" transform="translate(270.399963 0)"/>
     <use xlink:href="#NotoSans-Bold-61" transform="translate(315.799957 0)"/>
     <use xlink:href="#NotoSans-Bold-74" transform="translate(376.199951 0)"/>
     <use xlink:href="#NotoSans-Bold-69" transform="translate(419.599945 0)"/>
     <use xlink:href="#NotoSans-Bold-6f" transform="translate(450.09993 0)"/>
     <use xlink:href="#NotoSans-Bold-6e" transform="translate(511.999924 0)"/>
    </g>
   </g>
   <g id="text_9">
    <!-- RL Factory -->
    <g style="fill: #ffffff" transform="translate(180.429375 352.130156) scale(0.12 -0.12)">
     <use xlink:href="#NotoSans-Bold-52"/>
     <use xlink:href="#NotoSans-Bold-4c" transform="translate(65.999985 0)"/>
     <use xlink:href="#NotoSans-Bold-20" transform="translate(122.499969 0)"/>
     <use xlink:href="#NotoSans-Bold-46" transform="translate(148.499954 0)"/>
     <use xlink:href="#NotoSans-Bold-61" transform="translate(203.399948 0)"/>
     <use xlink:href="#NotoSans-Bold-63" transform="translate(263.799942 0)"/>
     <use xlink:href="#NotoSans-Bold-74" transform="translate(315.199936 0)"/>
     <use xlink:href="#NotoSans-Bold-6f" transform="translate(358.59993 0)"/>
     <use xlink:href="#NotoSans-Bold-72" transform="translate(420.499924 0)"/>
     <use xlink:href="#NotoSans-Bold-79" transform="translate(465.899918 0)"/>
    </g>
   </g>
   <g id="text_10">
    <!-- S&amp;T Integration -->
    <g style="fill: #ffffff" transform="translate(387.495938 352.130156) scale(0.12 -0.12)">
     <defs>
      <path id="NotoSans-Bold-26" d="M 1984 4634 
Q 2355 4634 2643 4518 
Q 2931 4403 3097 4182 
Q 3264 3962 3264 3642 
Q 3264 3200 3001 2899 
Q 2739 2598 2349 2374 
L 3238 1510 
Q 3366 1728 3462 1968 
Q 3558 2208 3622 2451 
L 4614 2451 
Q 4518 2093 4332 1683 
Q 4147 1274 3859 915 
L 4800 0 
L 3622 0 
L 3264 352 
Q 2989 160 2649 48 
Q 2310 -64 1914 -64 
Q 1133 -64 694 294 
Q 256 653 256 1235 
Q 256 1722 480 2013 
Q 704 2304 1094 2528 
Q 845 2816 745 3059 
Q 646 3302 646 3578 
Q 646 3904 816 4141 
Q 986 4378 1290 4506 
Q 1594 4634 1984 4634 
z
M 1978 3898 
Q 1818 3898 1674 3818 
Q 1530 3738 1530 3514 
Q 1530 3354 1610 3206 
Q 1690 3059 1824 2906 
Q 2093 3053 2237 3200 
Q 2381 3347 2381 3539 
Q 2381 3731 2253 3814 
Q 2125 3898 1978 3898 
z
M 1651 1958 
Q 1472 1824 1366 1673 
Q 1261 1523 1261 1325 
Q 1261 1050 1465 893 
Q 1670 736 1978 736 
Q 2182 736 2361 787 
Q 2541 838 2688 928 
L 1651 1958 
z
" transform="scale(0.015625)"/>
     </defs>
     <use xlink:href="#NotoSans-Bold-53"/>
     <use xlink:href="#NotoSans-Bold-26" transform="translate(55.099991 0)"/>
     <use xlink:href="#NotoSans-Bold-54" transform="translate(130.099976 0)"/>
     <use xlink:href="#NotoSans-Bold-20" transform="translate(187.999969 0)"/>
     <use xlink:href="#NotoSans-Bold-49" transform="translate(213.999954 0)"/>
     <use xlink:href="#NotoSans-Bold-6e" transform="translate(252.899948 0)"/>
     <use xlink:href="#NotoSans-Bold-74" transform="translate(318.599945 0)"/>
     <use xlink:href="#NotoSans-Bold-65" transform="translate(361.999939 0)"/>
     <use xlink:href="#NotoSans-Bold-67" transform="translate(421.09993 0)"/>
     <use xlink:href="#NotoSans-Bold-72" transform="translate(484.399918 0)"/>
     <use xlink:href="#NotoSans-Bold-61" transform="translate(529.799911 0)"/>
     <use xlink:href="#NotoSans-Bold-74" transform="translate(590.199905 0)"/>
     <use xlink:href="#NotoSans-Bold-69" transform="translate(633.599899 0)"/>
     <use xlink:href="#NotoSans-Bold-6f" transform="translate(664.099884 0)"/>
     <use xlink:href="#NotoSans-Bold-6e" transform="translate(725.999878 0)"/>
    </g>
   </g>
   <g id="text_11">
    <!-- EveAgentX -->
    <g style="fill: #ffffff" transform="translate(625.847813 345.218156) scale(0.12 -0.12)">
     <defs>
      <path id="NotoSans-Bold-58" d="M 4269 0 
L 3162 0 
L 2099 1728 
L 1037 0 
L 0 0 
L 1517 2355 
L 96 4570 
L 1165 4570 
L 2150 2925 
L 3117 4570 
L 4160 4570 
L 2726 2304 
L 4269 0 
z
" transform="scale(0.015625)"/>
     </defs>
     <use xlink:href="#NotoSans-Bold-45"/>
     <use xlink:href="#NotoSans-Bold-76" transform="translate(55.999985 0)"/>
     <use xlink:href="#NotoSans-Bold-65" transform="translate(112.899979 0)"/>
     <use xlink:href="#NotoSans-Bold-41" transform="translate(171.999969 0)"/>
     <use xlink:href="#NotoSans-Bold-67" transform="translate(240.999954 0)"/>
     <use xlink:href="#NotoSans-Bold-65" transform="translate(304.299942 0)"/>
     <use xlink:href="#NotoSans-Bold-6e" transform="translate(363.399933 0)"/>
     <use xlink:href="#NotoSans-Bold-74" transform="translate(429.09993 0)"/>
     <use xlink:href="#NotoSans-Bold-58" transform="translate(472.499924 0)"/>
    </g>
    <!-- Algorithms -->
    <g style="fill: #ffffff" transform="translate(624.7425 359.042156) scale(0.12 -0.12)">
     <use xlink:href="#NotoSans-Bold-41"/>
     <use xlink:href="#NotoSans-Bold-6c" transform="translate(68.999985 0)"/>
     <use xlink:href="#NotoSans-Bold-67" transform="translate(99.499969 0)"/>
     <use xlink:href="#NotoSans-Bold-6f" transform="translate(162.799957 0)"/>
     <use xlink:href="#NotoSans-Bold-72" transform="translate(224.699951 0)"/>
     <use xlink:href="#NotoSans-Bold-69" transform="translate(270.099945 0)"/>
     <use xlink:href="#NotoSans-Bold-74" transform="translate(300.59993 0)"/>
     <use xlink:href="#NotoSans-Bold-68" transform="translate(343.999924 0)"/>
     <use xlink:href="#NotoSans-Bold-6d" transform="translate(409.699921 0)"/>
     <use xlink:href="#NotoSans-Bold-73" transform="translate(507.899902 0)"/>
    </g>
   </g>
   <g id="text_12">
    <!-- Evolution -->
    <g style="fill: #ffffff" transform="translate(778.648125 345.218156) scale(0.12 -0.12)">
     <use xlink:href="#NotoSans-Bold-45"/>
     <use xlink:href="#NotoSans-Bold-76" transform="translate(55.999985 0)"/>
     <use xlink:href="#NotoSans-Bold-6f" transform="translate(112.899979 0)"/>
     <use xlink:href="#NotoSans-Bold-6c" transform="translate(174.799973 0)"/>
     <use xlink:href="#NotoSans-Bold-75" transform="translate(205.299957 0)"/>
     <use xlink:href="#NotoSans-Bold-74" transform="translate(270.999954 0)"/>
     <use xlink:href="#NotoSans-Bold-69" transform="translate(314.399948 0)"/>
     <use xlink:href="#NotoSans-Bold-6f" transform="translate(344.899933 0)"/>
     <use xlink:href="#NotoSans-Bold-6e" transform="translate(406.799927 0)"/>
    </g>
    <!-- Algorithms -->
    <g style="fill: #ffffff" transform="translate(773.5425 359.042156) scale(0.12 -0.12)">
     <use xlink:href="#NotoSans-Bold-41"/>
     <use xlink:href="#NotoSans-Bold-6c" transform="translate(68.999985 0)"/>
     <use xlink:href="#NotoSans-Bold-67" transform="translate(99.499969 0)"/>
     <use xlink:href="#NotoSans-Bold-6f" transform="translate(162.799957 0)"/>
     <use xlink:href="#NotoSans-Bold-72" transform="translate(224.699951 0)"/>
     <use xlink:href="#NotoSans-Bold-69" transform="translate(270.099945 0)"/>
     <use xlink:href="#NotoSans-Bold-74" transform="translate(300.59993 0)"/>
     <use xlink:href="#NotoSans-Bold-68" transform="translate(343.999924 0)"/>
     <use xlink:href="#NotoSans-Bold-6d" transform="translate(409.699921 0)"/>
     <use xlink:href="#NotoSans-Bold-73" transform="translate(507.899902 0)"/>
    </g>
   </g>
   <g id="text_13">
    <!-- MCP Tool -->
    <g style="fill: #ffffff" transform="translate(277.259063 584.978156) scale(0.12 -0.12)">
     <use xlink:href="#NotoSans-Bold-4d"/>
     <use xlink:href="#NotoSans-Bold-43" transform="translate(94.299988 0)"/>
     <use xlink:href="#NotoSans-Bold-50" transform="translate(157.999985 0)"/>
     <use xlink:href="#NotoSans-Bold-20" transform="translate(220.799973 0)"/>
     <use xlink:href="#NotoSans-Bold-54" transform="translate(246.799957 0)"/>
     <use xlink:href="#NotoSans-Bold-6f" transform="translate(304.699951 0)"/>
     <use xlink:href="#NotoSans-Bold-6f" transform="translate(366.599945 0)"/>
     <use xlink:href="#NotoSans-Bold-6c" transform="translate(428.499939 0)"/>
    </g>
   </g>
   <g id="text_14">
    <!-- Kilo Code Integration -->
    <g style="fill: #ffffff" transform="translate(631.377188 584.978156) scale(0.12 -0.12)">
     <defs>
      <path id="NotoSans-Bold-4b" d="M 4250 0 
L 3149 0 
L 1952 1926 
L 1542 1632 
L 1542 0 
L 576 0 
L 576 4570 
L 1542 4570 
L 1542 2477 
Q 1638 2611 1734 2745 
Q 1830 2880 1926 3014 
L 3162 4570 
L 4237 4570 
L 2643 2547 
L 4250 0 
z
" transform="scale(0.015625)"/>
     </defs>
     <use xlink:href="#NotoSans-Bold-4b"/>
     <use xlink:href="#NotoSans-Bold-69" transform="translate(66.399994 0)"/>
     <use xlink:href="#NotoSans-Bold-6c" transform="translate(96.899979 0)"/>
     <use xlink:href="#NotoSans-Bold-6f" transform="translate(127.399963 0)"/>
     <use xlink:href="#NotoSans-Bold-20" transform="translate(189.299957 0)"/>
     <use xlink:href="#NotoSans-Bold-43" transform="translate(215.299942 0)"/>
     <use xlink:href="#NotoSans-Bold-6f" transform="translate(278.999939 0)"/>
     <use xlink:href="#NotoSans-Bold-64" transform="translate(340.899933 0)"/>
     <use xlink:href="#NotoSans-Bold-65" transform="translate(404.199921 0)"/>
     <use xlink:href="#NotoSans-Bold-20" transform="translate(463.299911 0)"/>
     <use xlink:href="#NotoSans-Bold-49" transform="translate(489.299896 0)"/>
     <use xlink:href="#NotoSans-Bold-6e" transform="translate(528.19989 0)"/>
     <use xlink:href="#NotoSans-Bold-74" transform="translate(593.899887 0)"/>
     <use xlink:href="#NotoSans-Bold-65" transform="translate(637.299881 0)"/>
     <use xlink:href="#NotoSans-Bold-67" transform="translate(696.399872 0)"/>
     <use xlink:href="#NotoSans-Bold-72" transform="translate(759.69986 0)"/>
     <use xlink:href="#NotoSans-Bold-61" transform="translate(805.099854 0)"/>
     <use xlink:href="#NotoSans-Bold-74" transform="translate(865.499847 0)"/>
     <use xlink:href="#NotoSans-Bold-69" transform="translate(908.899841 0)"/>
     <use xlink:href="#NotoSans-Bold-6f" transform="translate(939.399826 0)"/>
     <use xlink:href="#NotoSans-Bold-6e" transform="translate(1001.29982 0)"/>
    </g>
   </g>
   <g id="patch_30">
    <path d="M 107.64 415.538156 
L 204.36 415.538156 
L 204.36 388.926956 
L 107.64 388.926956 
z
" clip-path="url(#pf0b48426a4)" style="fill: #ffffff; opacity: 0.9; stroke: #000000; stroke-linejoin: miter"/>
   </g>
   <g id="patch_31">
    <path d="M 107.64 448.802156 
L 204.36 448.802156 
L 204.36 422.190956 
L 107.64 422.190956 
z
" clip-path="url(#pf0b48426a4)" style="fill: #ffffff; opacity: 0.9; stroke: #000000; stroke-linejoin: miter"/>
   </g>
   <g id="patch_32">
    <path d="M 330.84 415.538156 
L 427.56 415.538156 
L 427.56 388.926956 
L 330.84 388.926956 
z
" clip-path="url(#pf0b48426a4)" style="fill: #ffffff; opacity: 0.9; stroke: #000000; stroke-linejoin: miter"/>
   </g>
   <g id="patch_33">
    <path d="M 330.84 448.802156 
L 427.56 448.802156 
L 427.56 422.190956 
L 330.84 422.190956 
z
" clip-path="url(#pf0b48426a4)" style="fill: #ffffff; opacity: 0.9; stroke: #000000; stroke-linejoin: miter"/>
   </g>
   <g id="patch_34">
    <path d="M 702.84 415.538156 
L 799.56 415.538156 
L 799.56 388.926956 
L 702.84 388.926956 
z
" clip-path="url(#pf0b48426a4)" style="fill: #ffffff; opacity: 0.9; stroke: #000000; stroke-linejoin: miter"/>
   </g>
   <g id="patch_35">
    <path d="M 182.04 648.386156 
L 278.76 648.386156 
L 278.76 621.774956 
L 182.04 621.774956 
z
" clip-path="url(#pf0b48426a4)" style="fill: #ffffff; opacity: 0.9; stroke: #000000; stroke-linejoin: miter"/>
   </g>
   <g id="patch_36">
    <path d="M 182.04 681.650156 
L 278.76 681.650156 
L 278.76 655.038956 
L 182.04 655.038956 
z
" clip-path="url(#pf0b48426a4)" style="fill: #ffffff; opacity: 0.9; stroke: #000000; stroke-linejoin: miter"/>
   </g>
   <g id="patch_37">
    <path d="M 182.04 714.914156 
L 278.76 714.914156 
L 278.76 688.302956 
L 182.04 688.302956 
z
" clip-path="url(#pf0b48426a4)" style="fill: #ffffff; opacity: 0.9; stroke: #000000; stroke-linejoin: miter"/>
   </g>
   <g id="patch_38">
    <path d="M 554.04 648.386156 
L 650.76 648.386156 
L 650.76 621.774956 
L 554.04 621.774956 
z
" clip-path="url(#pf0b48426a4)" style="fill: #ffffff; opacity: 0.9; stroke: #000000; stroke-linejoin: miter"/>
   </g>
   <g id="patch_39">
    <path d="M 554.04 681.650156 
L 650.76 681.650156 
L 650.76 655.038956 
L 554.04 655.038956 
z
" clip-path="url(#pf0b48426a4)" style="fill: #ffffff; opacity: 0.9; stroke: #000000; stroke-linejoin: miter"/>
   </g>
   <g id="text_15">
    <!-- POWERAUTOMATION 三层架构 -->
    <g transform="translate(200.3775 136.120556) scale(0.24 -0.24)">
     <defs>
      <path id="NotoSans-Bold-57" d="M 6189 4570 
L 5024 0 
L 3923 0 
L 3302 2400 
Q 3283 2470 3254 2611 
Q 3226 2752 3190 2918 
Q 3155 3085 3129 3235 
Q 3104 3386 3091 3469 
Q 3085 3386 3056 3235 
Q 3027 3085 2995 2921 
Q 2963 2758 2931 2614 
Q 2899 2470 2880 2394 
L 2266 0 
L 1165 0 
L 0 4570 
L 954 4570 
L 1536 2074 
Q 1574 1926 1619 1702 
Q 1664 1478 1702 1254 
Q 1741 1030 1760 877 
Q 1779 1037 1817 1257 
Q 1856 1478 1897 1686 
Q 1939 1894 1971 2010 
L 2637 4570 
L 3552 4570 
L 4218 2010 
Q 4250 1901 4291 1689 
Q 4333 1478 4371 1254 
Q 4410 1030 4429 877 
Q 4448 1037 4486 1257 
Q 4525 1478 4573 1702 
Q 4621 1926 4653 2074 
L 5235 4570 
L 6189 4570 
z
" transform="scale(0.015625)"/>
      <path id="NotoSansCJKjp-Bold-4e09" d="M 762 4826 
L 762 4038 
L 5645 4038 
L 5645 4826 
L 762 4826 
z
M 1203 2765 
L 1203 1984 
L 5133 1984 
L 5133 2765 
L 1203 2765 
z
M 403 595 
L 403 -186 
L 5984 -186 
L 5984 595 
L 403 595 
z
" transform="scale(0.015625)"/>
      <path id="NotoSansCJKjp-Bold-67b6" d="M 4237 4294 
L 5146 4294 
L 5146 3264 
L 4237 3264 
L 4237 4294 
z
M 3514 4954 
L 3514 2611 
L 5914 2611 
L 5914 4954 
L 3514 4954 
z
M 2790 2451 
L 2790 1990 
L 326 1990 
L 326 1312 
L 2349 1312 
C 1824 806 986 365 192 134 
C 352 -13 576 -301 691 -486 
C 1453 -211 2221 269 2790 851 
L 2790 -582 
L 3590 -582 
L 3590 858 
C 4166 294 4934 -173 5702 -429 
C 5811 -230 6048 64 6208 218 
C 5408 429 4589 832 4051 1312 
L 6048 1312 
L 6048 1990 
L 3590 1990 
L 3590 2451 
L 2790 2451 
z
M 1203 5434 
L 1178 4800 
L 326 4800 
L 326 4141 
L 1101 4141 
C 986 3552 736 3110 166 2803 
C 333 2675 544 2400 627 2214 
C 1382 2650 1690 3296 1830 4141 
L 2477 4141 
C 2445 3507 2400 3245 2336 3162 
C 2278 3110 2227 3091 2144 3091 
C 2048 3091 1856 3098 1645 3117 
C 1754 2938 1824 2656 1843 2445 
C 2118 2438 2374 2438 2528 2464 
C 2701 2490 2835 2547 2963 2694 
C 3117 2880 3174 3379 3226 4531 
C 3232 4621 3238 4800 3238 4800 
L 1907 4800 
L 1939 5434 
L 1203 5434 
z
" transform="scale(0.015625)"/>
      <path id="NotoSansCJKjp-Bold-6784" d="M 3277 5440 
C 3123 4851 2874 4269 2573 3789 
L 2573 4115 
L 1894 4115 
L 1894 5440 
L 1158 5440 
L 1158 4115 
L 243 4115 
L 243 3392 
L 1062 3392 
C 864 2656 486 1805 96 1312 
C 218 1120 384 806 461 589 
C 723 947 960 1466 1158 2029 
L 1158 -570 
L 1894 -570 
L 1894 2202 
C 2048 1933 2195 1651 2285 1453 
L 2733 2067 
C 2611 2234 2074 2944 1894 3149 
L 1894 3392 
L 2285 3392 
L 2150 3245 
C 2330 3130 2643 2867 2784 2733 
C 3008 3002 3226 3334 3424 3712 
L 5299 3712 
C 5229 1408 5146 486 4973 282 
C 4902 192 4838 166 4723 166 
C 4576 166 4288 166 3962 198 
C 4096 -19 4186 -352 4198 -563 
C 4531 -576 4870 -576 5088 -538 
C 5325 -499 5491 -422 5658 -186 
C 5901 141 5978 1165 6067 4058 
C 6067 4160 6074 4422 6074 4422 
L 3750 4422 
C 3866 4691 3962 4973 4045 5254 
L 3277 5440 
z
M 2394 1357 
L 2554 653 
L 4397 979 
C 4442 826 4474 691 4493 570 
L 5120 787 
C 5043 1203 4787 1850 4525 2349 
L 3942 2163 
C 4032 1978 4122 1773 4205 1568 
L 3552 1491 
C 3731 2010 3917 2669 4064 3258 
L 3322 3405 
C 3232 2797 3040 1978 2861 1408 
L 2394 1357 
z
" transform="scale(0.015625)"/>
     </defs>
     <use xlink:href="#NotoSans-Bold-50"/>
     <use xlink:href="#NotoSans-Bold-4f" transform="translate(62.799988 0)"/>
     <use xlink:href="#NotoSans-Bold-57" transform="translate(142.399979 0)"/>
     <use xlink:href="#NotoSans-Bold-45" transform="translate(239.09996 0)"/>
     <use xlink:href="#NotoSans-Bold-52" transform="translate(295.099945 0)"/>
     <use xlink:href="#NotoSans-Bold-41" transform="translate(361.09993 0)"/>
     <use xlink:href="#NotoSans-Bold-55" transform="translate(430.099915 0)"/>
     <use xlink:href="#NotoSans-Bold-54" transform="translate(505.699905 0)"/>
     <use xlink:href="#NotoSans-Bold-4f" transform="translate(563.599899 0)"/>
     <use xlink:href="#NotoSans-Bold-4d" transform="translate(643.19989 0)"/>
     <use xlink:href="#NotoSans-Bold-41" transform="translate(737.499878 0)"/>
     <use xlink:href="#NotoSans-Bold-54" transform="translate(806.499863 0)"/>
     <use xlink:href="#NotoSans-Bold-49" transform="translate(864.399857 0)"/>
     <use xlink:href="#NotoSans-Bold-4f" transform="translate(903.29985 0)"/>
     <use xlink:href="#NotoSans-Bold-4e" transform="translate(982.899841 0)"/>
     <use xlink:href="#NotoSans-Bold-20" transform="translate(1064.199829 0)"/>
     <use xlink:href="#NotoSansCJKjp-Bold-4e09" transform="translate(1090.199814 0)"/>
     <use xlink:href="#NotoSansCJKjp-Bold-5c42" transform="translate(1190.199799 0)"/>
     <use xlink:href="#NotoSansCJKjp-Bold-67b6" transform="translate(1290.199783 0)"/>
     <use xlink:href="#NotoSansCJKjp-Bold-6784" transform="translate(1390.199768 0)"/>
    </g>
   </g>
   <g id="text_16">
    <!-- Iteration AutoELO -->
    <g transform="translate(118.093125 404.572556) scale(0.09 -0.09)">
     <defs>
      <path id="NotoSans-Regular-49" d="M 1907 0 
L 256 0 
L 256 333 
L 794 454 
L 794 4109 
L 256 4237 
L 256 4570 
L 1907 4570 
L 1907 4237 
L 1370 4109 
L 1370 454 
L 1907 333 
L 1907 0 
z
" transform="scale(0.015625)"/>
      <path id="NotoSans-Regular-74" d="M 1690 397 
Q 1818 397 1952 419 
Q 2086 442 2170 467 
L 2170 38 
Q 2080 -6 1913 -35 
Q 1747 -64 1594 -64 
Q 1325 -64 1097 29 
Q 870 122 729 352 
Q 589 582 589 998 
L 589 2995 
L 102 2995 
L 102 3264 
L 595 3488 
L 819 4218 
L 1152 4218 
L 1152 3430 
L 2144 3430 
L 2144 2995 
L 1152 2995 
L 1152 1011 
Q 1152 698 1302 547 
Q 1453 397 1690 397 
z
" transform="scale(0.015625)"/>
      <path id="NotoSans-Regular-65" d="M 1869 3494 
Q 2310 3494 2627 3302 
Q 2944 3110 3113 2761 
Q 3283 2413 3283 1946 
L 3283 1606 
L 934 1606 
Q 947 1024 1232 720 
Q 1517 416 2029 416 
Q 2355 416 2608 477 
Q 2861 538 3130 653 
L 3130 160 
Q 2867 45 2611 -9 
Q 2355 -64 2003 -64 
Q 1517 -64 1142 134 
Q 768 333 560 726 
Q 352 1120 352 1690 
Q 352 2253 541 2656 
Q 730 3059 1072 3276 
Q 1414 3494 1869 3494 
z
M 1862 3034 
Q 1459 3034 1225 2774 
Q 992 2515 947 2054 
L 2694 2054 
Q 2688 2490 2489 2762 
Q 2291 3034 1862 3034 
z
" transform="scale(0.015625)"/>
      <path id="NotoSans-Regular-72" d="M 2144 3494 
Q 2240 3494 2352 3484 
Q 2464 3475 2547 3456 
L 2477 2938 
Q 2394 2957 2294 2969 
Q 2195 2982 2106 2982 
Q 1843 2982 1612 2838 
Q 1382 2694 1244 2435 
Q 1107 2176 1107 1830 
L 1107 0 
L 544 0 
L 544 3430 
L 1005 3430 
L 1069 2803 
L 1094 2803 
Q 1261 3085 1523 3289 
Q 1786 3494 2144 3494 
z
" transform="scale(0.015625)"/>
      <path id="NotoSans-Regular-61" d="M 1843 3488 
Q 2470 3488 2771 3213 
Q 3072 2938 3072 2336 
L 3072 0 
L 2662 0 
L 2554 486 
L 2528 486 
Q 2304 205 2057 70 
Q 1811 -64 1376 -64 
Q 909 -64 601 182 
Q 294 429 294 954 
Q 294 1466 697 1744 
Q 1101 2022 1939 2048 
L 2522 2067 
L 2522 2272 
Q 2522 2701 2336 2867 
Q 2150 3034 1811 3034 
Q 1542 3034 1299 2954 
Q 1056 2874 845 2771 
L 672 3194 
Q 896 3315 1203 3401 
Q 1510 3488 1843 3488 
z
M 2010 1658 
Q 1370 1632 1123 1453 
Q 877 1274 877 947 
Q 877 659 1053 524 
Q 1229 390 1504 390 
Q 1939 390 2227 630 
Q 2515 870 2515 1370 
L 2515 1677 
L 2010 1658 
z
" transform="scale(0.015625)"/>
      <path id="NotoSans-Regular-69" d="M 832 4717 
Q 960 4717 1059 4630 
Q 1158 4544 1158 4358 
Q 1158 4179 1059 4089 
Q 960 4000 832 4000 
Q 691 4000 595 4089 
Q 499 4179 499 4358 
Q 499 4544 595 4630 
Q 691 4717 832 4717 
z
M 1107 3430 
L 1107 0 
L 544 0 
L 544 3430 
L 1107 3430 
z
" transform="scale(0.015625)"/>
      <path id="NotoSans-Regular-6f" d="M 3526 1722 
Q 3526 870 3094 403 
Q 2662 -64 1926 -64 
Q 1472 -64 1117 144 
Q 762 352 557 752 
Q 352 1152 352 1722 
Q 352 2573 781 3033 
Q 1210 3494 1946 3494 
Q 2413 3494 2768 3286 
Q 3123 3078 3324 2684 
Q 3526 2291 3526 1722 
z
M 934 1722 
Q 934 1114 1174 758 
Q 1414 403 1939 403 
Q 2458 403 2701 758 
Q 2944 1114 2944 1722 
Q 2944 2330 2701 2675 
Q 2458 3021 1933 3021 
Q 1408 3021 1171 2675 
Q 934 2330 934 1722 
z
" transform="scale(0.015625)"/>
      <path id="NotoSans-Regular-6e" d="M 2195 3494 
Q 2810 3494 3123 3196 
Q 3437 2899 3437 2234 
L 3437 0 
L 2880 0 
L 2880 2195 
Q 2880 3021 2112 3021 
Q 1542 3021 1324 2701 
Q 1107 2381 1107 1779 
L 1107 0 
L 544 0 
L 544 3430 
L 998 3430 
L 1082 2963 
L 1114 2963 
Q 1280 3232 1574 3363 
Q 1869 3494 2195 3494 
z
" transform="scale(0.015625)"/>
      <path id="NotoSans-Regular-20" transform="scale(0.015625)"/>
      <path id="NotoSans-Regular-41" d="M 3488 0 
L 2938 1414 
L 1126 1414 
L 582 0 
L 0 0 
L 1786 4589 
L 2304 4589 
L 4083 0 
L 3488 0 
z
M 2253 3309 
Q 2234 3360 2189 3494 
Q 2144 3629 2102 3773 
Q 2061 3917 2035 3994 
Q 1990 3795 1932 3606 
Q 1875 3418 1837 3309 
L 1318 1926 
L 2765 1926 
L 2253 3309 
z
" transform="scale(0.015625)"/>
      <path id="NotoSans-Regular-75" d="M 3411 3430 
L 3411 0 
L 2950 0 
L 2867 454 
L 2842 454 
Q 2675 186 2380 61 
Q 2086 -64 1754 -64 
Q 1133 -64 819 233 
Q 506 531 506 1184 
L 506 3430 
L 1075 3430 
L 1075 1222 
Q 1075 403 1837 403 
Q 2406 403 2627 723 
Q 2848 1043 2848 1645 
L 2848 3430 
L 3411 3430 
z
" transform="scale(0.015625)"/>
      <path id="NotoSans-Regular-45" d="M 3174 0 
L 621 0 
L 621 4570 
L 3174 4570 
L 3174 4064 
L 1197 4064 
L 1197 2637 
L 3059 2637 
L 3059 2138 
L 1197 2138 
L 1197 506 
L 3174 506 
L 3174 0 
z
" transform="scale(0.015625)"/>
      <path id="NotoSans-Regular-4c" d="M 621 0 
L 621 4570 
L 1197 4570 
L 1197 512 
L 3194 512 
L 3194 0 
L 621 0 
z
" transform="scale(0.015625)"/>
      <path id="NotoSans-Regular-4f" d="M 4608 2291 
Q 4608 1581 4368 1053 
Q 4128 525 3661 230 
Q 3194 -64 2502 -64 
Q 1792 -64 1321 230 
Q 851 525 620 1056 
Q 390 1587 390 2298 
Q 390 3002 620 3526 
Q 851 4051 1321 4345 
Q 1792 4640 2509 4640 
Q 3194 4640 3661 4349 
Q 4128 4058 4368 3530 
Q 4608 3002 4608 2291 
z
M 998 2291 
Q 998 1427 1363 931 
Q 1728 435 2502 435 
Q 3283 435 3641 931 
Q 4000 1427 4000 2291 
Q 4000 3155 3641 3644 
Q 3283 4134 2509 4134 
Q 1734 4134 1366 3644 
Q 998 3155 998 2291 
z
" transform="scale(0.015625)"/>
     </defs>
     <use xlink:href="#NotoSans-Regular-49"/>
     <use xlink:href="#NotoSans-Regular-74" transform="translate(33.899994 0)"/>
     <use xlink:href="#NotoSans-Regular-65" transform="translate(69.999985 0)"/>
     <use xlink:href="#NotoSans-Regular-72" transform="translate(126.399979 0)"/>
     <use xlink:href="#NotoSans-Regular-61" transform="translate(167.699966 0)"/>
     <use xlink:href="#NotoSans-Regular-74" transform="translate(223.799957 0)"/>
     <use xlink:href="#NotoSans-Regular-69" transform="translate(259.899948 0)"/>
     <use xlink:href="#NotoSans-Regular-6f" transform="translate(285.699936 0)"/>
     <use xlink:href="#NotoSans-Regular-6e" transform="translate(346.199921 0)"/>
     <use xlink:href="#NotoSans-Regular-20" transform="translate(407.999908 0)"/>
     <use xlink:href="#NotoSans-Regular-41" transform="translate(433.999893 0)"/>
     <use xlink:href="#NotoSans-Regular-75" transform="translate(497.899887 0)"/>
     <use xlink:href="#NotoSans-Regular-74" transform="translate(559.699875 0)"/>
     <use xlink:href="#NotoSans-Regular-6f" transform="translate(595.799866 0)"/>
     <use xlink:href="#NotoSans-Regular-45" transform="translate(656.29985 0)"/>
     <use xlink:href="#NotoSans-Regular-4c" transform="translate(711.899841 0)"/>
     <use xlink:href="#NotoSans-Regular-4f" transform="translate(764.299835 0)"/>
    </g>
   </g>
   <g id="text_17">
    <!-- Riccati Learner -->
    <g transform="translate(124.784063 437.836556) scale(0.09 -0.09)">
     <defs>
      <path id="NotoSans-Regular-52" d="M 1882 4570 
Q 2733 4570 3139 4246 
Q 3546 3923 3546 3270 
Q 3546 2906 3411 2662 
Q 3277 2419 3069 2275 
Q 2861 2131 2630 2048 
L 3885 0 
L 3213 0 
L 2106 1888 
L 1197 1888 
L 1197 0 
L 621 0 
L 621 4570 
L 1882 4570 
z
M 1850 4070 
L 1197 4070 
L 1197 2374 
L 1882 2374 
Q 2438 2374 2694 2595 
Q 2950 2816 2950 3245 
Q 2950 3693 2681 3881 
Q 2413 4070 1850 4070 
z
" transform="scale(0.015625)"/>
      <path id="NotoSans-Regular-63" d="M 1920 -64 
Q 1466 -64 1110 121 
Q 755 307 553 697 
Q 352 1088 352 1696 
Q 352 2330 563 2726 
Q 774 3123 1136 3308 
Q 1498 3494 1958 3494 
Q 2221 3494 2464 3440 
Q 2707 3386 2861 3309 
L 2688 2842 
Q 2534 2899 2329 2950 
Q 2125 3002 1946 3002 
Q 934 3002 934 1702 
Q 934 1082 1180 752 
Q 1427 422 1914 422 
Q 2195 422 2409 480 
Q 2624 538 2803 621 
L 2803 122 
Q 2630 32 2422 -16 
Q 2214 -64 1920 -64 
z
" transform="scale(0.015625)"/>
     </defs>
     <use xlink:href="#NotoSans-Regular-52"/>
     <use xlink:href="#NotoSans-Regular-69" transform="translate(62.199997 0)"/>
     <use xlink:href="#NotoSans-Regular-63" transform="translate(87.999985 0)"/>
     <use xlink:href="#NotoSans-Regular-63" transform="translate(135.999969 0)"/>
     <use xlink:href="#NotoSans-Regular-61" transform="translate(183.999954 0)"/>
     <use xlink:href="#NotoSans-Regular-74" transform="translate(240.099945 0)"/>
     <use xlink:href="#NotoSans-Regular-69" transform="translate(276.199936 0)"/>
     <use xlink:href="#NotoSans-Regular-20" transform="translate(301.999924 0)"/>
     <use xlink:href="#NotoSans-Regular-4c" transform="translate(327.999908 0)"/>
     <use xlink:href="#NotoSans-Regular-65" transform="translate(380.399902 0)"/>
     <use xlink:href="#NotoSans-Regular-61" transform="translate(436.799896 0)"/>
     <use xlink:href="#NotoSans-Regular-72" transform="translate(492.899887 0)"/>
     <use xlink:href="#NotoSans-Regular-6e" transform="translate(534.199875 0)"/>
     <use xlink:href="#NotoSans-Regular-65" transform="translate(595.999863 0)"/>
     <use xlink:href="#NotoSans-Regular-72" transform="translate(652.399857 0)"/>
    </g>
   </g>
   <g id="text_18">
    <!-- Dense Area Attention -->
    <g transform="translate(334.033359 404.572556) scale(0.09 -0.09)">
     <defs>
      <path id="NotoSans-Regular-44" d="M 4282 2330 
Q 4282 1171 3651 585 
Q 3021 0 1894 0 
L 621 0 
L 621 4570 
L 2029 4570 
Q 2720 4570 3225 4314 
Q 3731 4058 4006 3562 
Q 4282 3066 4282 2330 
z
M 3674 2310 
Q 3674 3226 3222 3651 
Q 2771 4077 1946 4077 
L 1197 4077 
L 1197 493 
L 1818 493 
Q 3674 493 3674 2310 
z
" transform="scale(0.015625)"/>
      <path id="NotoSans-Regular-73" d="M 2778 947 
Q 2778 448 2406 192 
Q 2035 -64 1408 -64 
Q 1050 -64 790 -6 
Q 531 51 333 154 
L 333 666 
Q 538 563 829 476 
Q 1120 390 1421 390 
Q 1850 390 2042 528 
Q 2234 666 2234 896 
Q 2234 1024 2163 1126 
Q 2093 1229 1910 1331 
Q 1728 1434 1389 1562 
Q 1056 1690 819 1818 
Q 582 1946 454 2125 
Q 326 2304 326 2586 
Q 326 3021 681 3257 
Q 1037 3494 1613 3494 
Q 1926 3494 2198 3433 
Q 2470 3373 2707 3264 
L 2515 2816 
Q 2298 2906 2061 2970 
Q 1824 3034 1574 3034 
Q 1229 3034 1046 2922 
Q 864 2810 864 2618 
Q 864 2477 947 2377 
Q 1030 2278 1225 2185 
Q 1421 2093 1747 1965 
Q 2074 1843 2304 1715 
Q 2534 1587 2656 1404 
Q 2778 1222 2778 947 
z
" transform="scale(0.015625)"/>
     </defs>
     <use xlink:href="#NotoSans-Regular-44"/>
     <use xlink:href="#NotoSans-Regular-65" transform="translate(72.999985 0)"/>
     <use xlink:href="#NotoSans-Regular-6e" transform="translate(129.399979 0)"/>
     <use xlink:href="#NotoSans-Regular-73" transform="translate(191.199966 0)"/>
     <use xlink:href="#NotoSans-Regular-65" transform="translate(239.09996 0)"/>
     <use xlink:href="#NotoSans-Regular-20" transform="translate(295.499954 0)"/>
     <use xlink:href="#NotoSans-Regular-41" transform="translate(321.499939 0)"/>
     <use xlink:href="#NotoSans-Regular-72" transform="translate(385.399933 0)"/>
     <use xlink:href="#NotoSans-Regular-65" transform="translate(426.699921 0)"/>
     <use xlink:href="#NotoSans-Regular-61" transform="translate(483.099915 0)"/>
     <use xlink:href="#NotoSans-Regular-20" transform="translate(539.199905 0)"/>
     <use xlink:href="#NotoSans-Regular-41" transform="translate(565.19989 0)"/>
     <use xlink:href="#NotoSans-Regular-74" transform="translate(629.099884 0)"/>
     <use xlink:href="#NotoSans-Regular-74" transform="translate(665.199875 0)"/>
     <use xlink:href="#NotoSans-Regular-65" transform="translate(701.299866 0)"/>
     <use xlink:href="#NotoSans-Regular-6e" transform="translate(757.69986 0)"/>
     <use xlink:href="#NotoSans-Regular-74" transform="translate(819.499847 0)"/>
     <use xlink:href="#NotoSans-Regular-69" transform="translate(855.599838 0)"/>
     <use xlink:href="#NotoSans-Regular-6f" transform="translate(881.399826 0)"/>
     <use xlink:href="#NotoSans-Regular-6e" transform="translate(941.899811 0)"/>
    </g>
   </g>
   <g id="text_19">
    <!-- BLGO Distribution -->
    <g transform="translate(340.874766 437.836556) scale(0.09 -0.09)">
     <defs>
      <path id="NotoSans-Regular-42" d="M 1926 4570 
Q 2784 4570 3222 4317 
Q 3661 4064 3661 3437 
Q 3661 3034 3437 2768 
Q 3213 2502 2790 2426 
L 2790 2394 
Q 3078 2349 3312 2227 
Q 3546 2106 3680 1882 
Q 3814 1658 3814 1299 
Q 3814 678 3388 339 
Q 2963 0 2227 0 
L 621 0 
L 621 4570 
L 1926 4570 
z
M 2042 2624 
Q 2630 2624 2848 2813 
Q 3066 3002 3066 3373 
Q 3066 3750 2800 3913 
Q 2534 4077 1952 4077 
L 1197 4077 
L 1197 2624 
L 2042 2624 
z
M 1197 2144 
L 1197 486 
L 2118 486 
Q 2726 486 2963 723 
Q 3200 960 3200 1344 
Q 3200 1702 2953 1923 
Q 2707 2144 2074 2144 
L 1197 2144 
z
" transform="scale(0.015625)"/>
      <path id="NotoSans-Regular-47" d="M 2605 2413 
L 4186 2413 
L 4186 173 
Q 3814 51 3436 -6 
Q 3059 -64 2579 -64 
Q 1869 -64 1382 221 
Q 896 506 643 1034 
Q 390 1562 390 2285 
Q 390 3002 672 3526 
Q 954 4051 1482 4342 
Q 2010 4634 2758 4634 
Q 3142 4634 3484 4563 
Q 3827 4493 4122 4365 
L 3904 3866 
Q 3661 3974 3357 4051 
Q 3053 4128 2726 4128 
Q 1907 4128 1449 3635 
Q 992 3142 992 2285 
Q 992 1741 1168 1321 
Q 1344 902 1721 668 
Q 2099 435 2714 435 
Q 3014 435 3225 467 
Q 3437 499 3610 544 
L 3610 1901 
L 2605 1901 
L 2605 2413 
z
" transform="scale(0.015625)"/>
      <path id="NotoSans-Regular-62" d="M 1107 3680 
Q 1107 3462 1097 3273 
Q 1088 3085 1075 2976 
L 1107 2976 
Q 1254 3194 1510 3341 
Q 1766 3488 2170 3488 
Q 2810 3488 3197 3043 
Q 3584 2598 3584 1715 
Q 3584 832 3193 384 
Q 2803 -64 2170 -64 
Q 1766 -64 1510 83 
Q 1254 230 1107 435 
L 1062 435 
L 947 0 
L 544 0 
L 544 4864 
L 1107 4864 
L 1107 3680 
z
M 2074 3021 
Q 1530 3021 1318 2707 
Q 1107 2394 1107 1734 
L 1107 1709 
Q 1107 1075 1315 739 
Q 1523 403 2086 403 
Q 2547 403 2774 742 
Q 3002 1082 3002 1722 
Q 3002 3021 2074 3021 
z
" transform="scale(0.015625)"/>
     </defs>
     <use xlink:href="#NotoSans-Regular-42"/>
     <use xlink:href="#NotoSans-Regular-4c" transform="translate(64.999985 0)"/>
     <use xlink:href="#NotoSans-Regular-47" transform="translate(117.399979 0)"/>
     <use xlink:href="#NotoSans-Regular-4f" transform="translate(190.199966 0)"/>
     <use xlink:href="#NotoSans-Regular-20" transform="translate(268.299957 0)"/>
     <use xlink:href="#NotoSans-Regular-44" transform="translate(294.299942 0)"/>
     <use xlink:href="#NotoSans-Regular-69" transform="translate(367.299927 0)"/>
     <use xlink:href="#NotoSans-Regular-73" transform="translate(393.099915 0)"/>
     <use xlink:href="#NotoSans-Regular-74" transform="translate(440.999908 0)"/>
     <use xlink:href="#NotoSans-Regular-72" transform="translate(477.099899 0)"/>
     <use xlink:href="#NotoSans-Regular-69" transform="translate(518.399887 0)"/>
     <use xlink:href="#NotoSans-Regular-62" transform="translate(544.199875 0)"/>
     <use xlink:href="#NotoSans-Regular-75" transform="translate(605.69986 0)"/>
     <use xlink:href="#NotoSans-Regular-74" transform="translate(667.499847 0)"/>
     <use xlink:href="#NotoSans-Regular-69" transform="translate(703.599838 0)"/>
     <use xlink:href="#NotoSans-Regular-6f" transform="translate(729.399826 0)"/>
     <use xlink:href="#NotoSans-Regular-6e" transform="translate(789.899811 0)"/>
    </g>
   </g>
   <g id="text_20">
    <!-- Actions Benchmarks -->
    <g transform="translate(708.215859 404.572556) scale(0.09 -0.09)">
     <defs>
      <path id="NotoSans-Regular-68" d="M 1107 3437 
Q 1107 3181 1075 2957 
L 1114 2957 
Q 1280 3219 1565 3353 
Q 1850 3488 2182 3488 
Q 2810 3488 3123 3190 
Q 3437 2893 3437 2234 
L 3437 0 
L 2880 0 
L 2880 2195 
Q 2880 3021 2112 3021 
Q 1536 3021 1321 2697 
Q 1107 2374 1107 1773 
L 1107 0 
L 544 0 
L 544 4864 
L 1107 4864 
L 1107 3437 
z
" transform="scale(0.015625)"/>
      <path id="NotoSans-Regular-6d" d="M 4307 3494 
Q 4890 3494 5178 3196 
Q 5466 2899 5466 2234 
L 5466 0 
L 4909 0 
L 4909 2208 
Q 4909 3021 4211 3021 
Q 3712 3021 3497 2733 
Q 3283 2445 3283 1894 
L 3283 0 
L 2726 0 
L 2726 2208 
Q 2726 3021 2022 3021 
Q 1504 3021 1305 2701 
Q 1107 2381 1107 1779 
L 1107 0 
L 544 0 
L 544 3430 
L 998 3430 
L 1082 2963 
L 1114 2963 
Q 1274 3232 1546 3363 
Q 1818 3494 2125 3494 
Q 2931 3494 3174 2918 
L 3206 2918 
Q 3379 3213 3676 3353 
Q 3974 3494 4307 3494 
z
" transform="scale(0.015625)"/>
      <path id="NotoSans-Regular-6b" d="M 1101 2323 
Q 1101 2221 1091 2054 
Q 1082 1888 1075 1766 
L 1101 1766 
Q 1139 1818 1216 1914 
Q 1293 2010 1373 2109 
Q 1453 2208 1510 2272 
L 2605 3430 
L 3264 3430 
L 1875 1965 
L 3360 0 
L 2682 0 
L 1491 1600 
L 1101 1261 
L 1101 0 
L 544 0 
L 544 4864 
L 1101 4864 
L 1101 2323 
z
" transform="scale(0.015625)"/>
     </defs>
     <use xlink:href="#NotoSans-Regular-41"/>
     <use xlink:href="#NotoSans-Regular-63" transform="translate(63.899994 0)"/>
     <use xlink:href="#NotoSans-Regular-74" transform="translate(111.899979 0)"/>
     <use xlink:href="#NotoSans-Regular-69" transform="translate(147.999969 0)"/>
     <use xlink:href="#NotoSans-Regular-6f" transform="translate(173.799957 0)"/>
     <use xlink:href="#NotoSans-Regular-6e" transform="translate(234.299942 0)"/>
     <use xlink:href="#NotoSans-Regular-73" transform="translate(296.09993 0)"/>
     <use xlink:href="#NotoSans-Regular-20" transform="translate(343.999924 0)"/>
     <use xlink:href="#NotoSans-Regular-42" transform="translate(369.999908 0)"/>
     <use xlink:href="#NotoSans-Regular-65" transform="translate(434.999893 0)"/>
     <use xlink:href="#NotoSans-Regular-6e" transform="translate(491.399887 0)"/>
     <use xlink:href="#NotoSans-Regular-63" transform="translate(553.199875 0)"/>
     <use xlink:href="#NotoSans-Regular-68" transform="translate(601.19986 0)"/>
     <use xlink:href="#NotoSans-Regular-6d" transform="translate(662.999847 0)"/>
     <use xlink:href="#NotoSans-Regular-61" transform="translate(756.499832 0)"/>
     <use xlink:href="#NotoSans-Regular-72" transform="translate(812.599823 0)"/>
     <use xlink:href="#NotoSans-Regular-6b" transform="translate(853.899811 0)"/>
     <use xlink:href="#NotoSans-Regular-73" transform="translate(907.299805 0)"/>
    </g>
   </g>
   <g id="text_21">
    <!-- API Mediator -->
    <g transform="translate(202.828359 637.420556) scale(0.09 -0.09)">
     <defs>
      <path id="NotoSans-Regular-50" d="M 1830 4570 
Q 2726 4570 3136 4218 
Q 3546 3866 3546 3226 
Q 3546 2848 3376 2518 
Q 3206 2189 2806 1984 
Q 2406 1779 1722 1779 
L 1197 1779 
L 1197 0 
L 621 0 
L 621 4570 
L 1830 4570 
z
M 1779 4077 
L 1197 4077 
L 1197 2272 
L 1658 2272 
Q 2310 2272 2630 2483 
Q 2950 2694 2950 3200 
Q 2950 3642 2668 3859 
Q 2387 4077 1779 4077 
z
" transform="scale(0.015625)"/>
      <path id="NotoSans-Regular-4d" d="M 2637 0 
L 1133 4006 
L 1107 4006 
Q 1126 3808 1139 3472 
Q 1152 3136 1152 2771 
L 1152 0 
L 621 0 
L 621 4570 
L 1472 4570 
L 2880 826 
L 2906 826 
L 4339 4570 
L 5184 4570 
L 5184 0 
L 4614 0 
L 4614 2810 
Q 4614 3142 4630 3468 
Q 4646 3795 4659 4000 
L 4634 4000 
L 3110 0 
L 2637 0 
z
" transform="scale(0.015625)"/>
      <path id="NotoSans-Regular-64" d="M 1760 -64 
Q 1120 -64 736 381 
Q 352 826 352 1709 
Q 352 2592 739 3043 
Q 1126 3494 1766 3494 
Q 2163 3494 2416 3347 
Q 2669 3200 2829 2989 
L 2867 2989 
Q 2861 3072 2845 3235 
Q 2829 3398 2829 3494 
L 2829 4864 
L 3392 4864 
L 3392 0 
L 2938 0 
L 2854 461 
L 2829 461 
Q 2675 243 2419 89 
Q 2163 -64 1760 -64 
z
M 1850 403 
Q 2394 403 2614 700 
Q 2835 998 2835 1600 
L 2835 1702 
Q 2835 2342 2624 2684 
Q 2413 3027 1843 3027 
Q 1389 3027 1161 2665 
Q 934 2304 934 1696 
Q 934 1082 1161 742 
Q 1389 403 1850 403 
z
" transform="scale(0.015625)"/>
     </defs>
     <use xlink:href="#NotoSans-Regular-41"/>
     <use xlink:href="#NotoSans-Regular-50" transform="translate(63.899994 0)"/>
     <use xlink:href="#NotoSans-Regular-49" transform="translate(124.399979 0)"/>
     <use xlink:href="#NotoSans-Regular-20" transform="translate(158.299973 0)"/>
     <use xlink:href="#NotoSans-Regular-4d" transform="translate(184.299957 0)"/>
     <use xlink:href="#NotoSans-Regular-65" transform="translate(274.999939 0)"/>
     <use xlink:href="#NotoSans-Regular-64" transform="translate(331.399933 0)"/>
     <use xlink:href="#NotoSans-Regular-69" transform="translate(392.899918 0)"/>
     <use xlink:href="#NotoSans-Regular-61" transform="translate(418.699905 0)"/>
     <use xlink:href="#NotoSans-Regular-74" transform="translate(474.799896 0)"/>
     <use xlink:href="#NotoSans-Regular-6f" transform="translate(510.899887 0)"/>
     <use xlink:href="#NotoSans-Regular-72" transform="translate(571.399872 0)"/>
    </g>
   </g>
   <g id="text_22">
    <!-- G% Code Quality -->
    <g transform="translate(195.112266 670.684556) scale(0.09 -0.09)">
     <defs>
      <path id="NotoSans-Regular-25" d="M 1248 4634 
Q 1722 4634 1965 4259 
Q 2208 3885 2208 3206 
Q 2208 2528 1974 2147 
Q 1741 1766 1248 1766 
Q 794 1766 554 2147 
Q 314 2528 314 3206 
Q 314 3885 538 4259 
Q 762 4634 1248 4634 
z
M 4173 4570 
L 1638 0 
L 1146 0 
L 3680 4570 
L 4173 4570 
z
M 1248 4237 
Q 1005 4237 893 3977 
Q 781 3718 781 3206 
Q 781 2694 893 2432 
Q 1005 2170 1248 2170 
Q 1741 2170 1741 3206 
Q 1741 4237 1248 4237 
z
M 4045 2803 
Q 4512 2803 4758 2428 
Q 5005 2054 5005 1376 
Q 5005 698 4771 317 
Q 4538 -64 4045 -64 
Q 3590 -64 3350 317 
Q 3110 698 3110 1376 
Q 3110 2054 3334 2428 
Q 3558 2803 4045 2803 
z
M 4045 2400 
Q 3802 2400 3690 2144 
Q 3578 1888 3578 1376 
Q 3578 858 3690 598 
Q 3802 339 4045 339 
Q 4538 339 4538 1376 
Q 4538 2400 4045 2400 
z
" transform="scale(0.015625)"/>
      <path id="NotoSans-Regular-43" d="M 2579 4128 
Q 1843 4128 1420 3635 
Q 998 3142 998 2285 
Q 998 1434 1392 938 
Q 1786 442 2573 442 
Q 2874 442 3142 493 
Q 3411 544 3667 621 
L 3667 122 
Q 3411 26 3139 -19 
Q 2867 -64 2490 -64 
Q 1792 -64 1325 224 
Q 858 512 624 1043 
Q 390 1574 390 2291 
Q 390 2982 643 3510 
Q 896 4038 1389 4336 
Q 1882 4634 2586 4634 
Q 3309 4634 3846 4365 
L 3616 3878 
Q 3405 3974 3145 4051 
Q 2886 4128 2579 4128 
z
" transform="scale(0.015625)"/>
      <path id="NotoSans-Regular-51" d="M 4608 2291 
Q 4608 1453 4272 864 
Q 3936 275 3277 51 
L 4371 -1088 
L 3546 -1088 
L 2662 -58 
Q 2624 -58 2582 -61 
Q 2541 -64 2502 -64 
Q 1792 -64 1321 230 
Q 851 525 620 1056 
Q 390 1587 390 2298 
Q 390 3002 620 3526 
Q 851 4051 1321 4345 
Q 1792 4640 2509 4640 
Q 3194 4640 3661 4349 
Q 4128 4058 4368 3530 
Q 4608 3002 4608 2291 
z
M 998 2291 
Q 998 1427 1363 931 
Q 1728 435 2502 435 
Q 3283 435 3641 931 
Q 4000 1427 4000 2291 
Q 4000 3155 3641 3644 
Q 3283 4134 2509 4134 
Q 1734 4134 1366 3644 
Q 998 3155 998 2291 
z
" transform="scale(0.015625)"/>
      <path id="NotoSans-Regular-6c" d="M 1107 0 
L 544 0 
L 544 4864 
L 1107 4864 
L 1107 0 
z
" transform="scale(0.015625)"/>
      <path id="NotoSans-Regular-79" d="M 6 3430 
L 608 3430 
L 1350 1478 
Q 1446 1222 1523 988 
Q 1600 755 1638 544 
L 1664 544 
Q 1702 704 1785 963 
Q 1869 1222 1958 1485 
L 2656 3430 
L 3264 3430 
L 1786 -474 
Q 1606 -960 1321 -1248 
Q 1037 -1536 538 -1536 
Q 384 -1536 269 -1520 
Q 154 -1504 70 -1485 
L 70 -1037 
Q 141 -1050 240 -1062 
Q 339 -1075 448 -1075 
Q 742 -1075 924 -908 
Q 1107 -742 1210 -467 
L 1389 -13 
L 6 3430 
z
" transform="scale(0.015625)"/>
     </defs>
     <use xlink:href="#NotoSans-Regular-47"/>
     <use xlink:href="#NotoSans-Regular-25" transform="translate(72.799988 0)"/>
     <use xlink:href="#NotoSans-Regular-20" transform="translate(155.899979 0)"/>
     <use xlink:href="#NotoSans-Regular-43" transform="translate(181.899963 0)"/>
     <use xlink:href="#NotoSans-Regular-6f" transform="translate(245.09996 0)"/>
     <use xlink:href="#NotoSans-Regular-64" transform="translate(305.599945 0)"/>
     <use xlink:href="#NotoSans-Regular-65" transform="translate(367.09993 0)"/>
     <use xlink:href="#NotoSans-Regular-20" transform="translate(423.499924 0)"/>
     <use xlink:href="#NotoSans-Regular-51" transform="translate(449.499908 0)"/>
     <use xlink:href="#NotoSans-Regular-75" transform="translate(527.599899 0)"/>
     <use xlink:href="#NotoSans-Regular-61" transform="translate(589.399887 0)"/>
     <use xlink:href="#NotoSans-Regular-6c" transform="translate(645.499878 0)"/>
     <use xlink:href="#NotoSans-Regular-69" transform="translate(671.299866 0)"/>
     <use xlink:href="#NotoSans-Regular-74" transform="translate(697.099854 0)"/>
     <use xlink:href="#NotoSans-Regular-79" transform="translate(733.199844 0)"/>
    </g>
   </g>
   <g id="text_23">
    <!-- Centaboo's -->
    <g transform="translate(206.7075 703.948556) scale(0.09 -0.09)">
     <defs>
      <path id="NotoSans-Regular-27" d="M 1024 4570 
L 896 2918 
L 544 2918 
L 416 4570 
L 1024 4570 
z
" transform="scale(0.015625)"/>
     </defs>
     <use xlink:href="#NotoSans-Regular-43"/>
     <use xlink:href="#NotoSans-Regular-65" transform="translate(63.199997 0)"/>
     <use xlink:href="#NotoSans-Regular-6e" transform="translate(119.599991 0)"/>
     <use xlink:href="#NotoSans-Regular-74" transform="translate(181.399979 0)"/>
     <use xlink:href="#NotoSans-Regular-61" transform="translate(217.499969 0)"/>
     <use xlink:href="#NotoSans-Regular-62" transform="translate(273.59996 0)"/>
     <use xlink:href="#NotoSans-Regular-6f" transform="translate(335.099945 0)"/>
     <use xlink:href="#NotoSans-Regular-6f" transform="translate(395.59993 0)"/>
     <use xlink:href="#NotoSans-Regular-27" transform="translate(456.099915 0)"/>
     <use xlink:href="#NotoSans-Regular-73" transform="translate(478.599899 0)"/>
    </g>
   </g>
   <g id="text_24">
    <!-- Code Generation -->
    <g transform="translate(566.553281 637.420556) scale(0.09 -0.09)">
     <use xlink:href="#NotoSans-Regular-43"/>
     <use xlink:href="#NotoSans-Regular-6f" transform="translate(63.199997 0)"/>
     <use xlink:href="#NotoSans-Regular-64" transform="translate(123.699982 0)"/>
     <use xlink:href="#NotoSans-Regular-65" transform="translate(185.199966 0)"/>
     <use xlink:href="#NotoSans-Regular-20" transform="translate(241.59996 0)"/>
     <use xlink:href="#NotoSans-Regular-47" transform="translate(267.599945 0)"/>
     <use xlink:href="#NotoSans-Regular-65" transform="translate(340.399933 0)"/>
     <use xlink:href="#NotoSans-Regular-6e" transform="translate(396.799927 0)"/>
     <use xlink:href="#NotoSans-Regular-65" transform="translate(458.599915 0)"/>
     <use xlink:href="#NotoSans-Regular-72" transform="translate(514.999908 0)"/>
     <use xlink:href="#NotoSans-Regular-61" transform="translate(556.299896 0)"/>
     <use xlink:href="#NotoSans-Regular-74" transform="translate(612.399887 0)"/>
     <use xlink:href="#NotoSans-Regular-69" transform="translate(648.499878 0)"/>
     <use xlink:href="#NotoSans-Regular-6f" transform="translate(674.299866 0)"/>
     <use xlink:href="#NotoSans-Regular-6e" transform="translate(734.79985 0)"/>
    </g>
   </g>
   <g id="text_25">
    <!-- Integration Aligners -->
    <g transform="translate(560.024063 670.684556) scale(0.09 -0.09)">
     <defs>
      <path id="NotoSans-Regular-67" d="M 1760 3494 
Q 2099 3494 2371 3366 
Q 2643 3238 2835 2976 
L 2867 2976 
L 2944 3430 
L 3392 3430 
L 3392 -58 
Q 3392 -794 3017 -1165 
Q 2643 -1536 1856 -1536 
Q 1101 -1536 621 -1318 
L 621 -800 
Q 1126 -1069 1888 -1069 
Q 2330 -1069 2582 -809 
Q 2835 -550 2835 -102 
L 2835 32 
Q 2835 109 2841 253 
Q 2848 397 2854 454 
L 2829 454 
Q 2483 -64 1766 -64 
Q 1101 -64 726 403 
Q 352 870 352 1709 
Q 352 2528 726 3011 
Q 1101 3494 1760 3494 
z
M 1837 3021 
Q 1408 3021 1171 2678 
Q 934 2336 934 1702 
Q 934 1069 1168 733 
Q 1402 397 1850 397 
Q 2368 397 2605 675 
Q 2842 954 2842 1574 
L 2842 1709 
Q 2842 2413 2598 2717 
Q 2355 3021 1837 3021 
z
" transform="scale(0.015625)"/>
     </defs>
     <use xlink:href="#NotoSans-Regular-49"/>
     <use xlink:href="#NotoSans-Regular-6e" transform="translate(33.899994 0)"/>
     <use xlink:href="#NotoSans-Regular-74" transform="translate(95.699982 0)"/>
     <use xlink:href="#NotoSans-Regular-65" transform="translate(131.799973 0)"/>
     <use xlink:href="#NotoSans-Regular-67" transform="translate(188.199966 0)"/>
     <use xlink:href="#NotoSans-Regular-72" transform="translate(249.699951 0)"/>
     <use xlink:href="#NotoSans-Regular-61" transform="translate(290.999939 0)"/>
     <use xlink:href="#NotoSans-Regular-74" transform="translate(347.09993 0)"/>
     <use xlink:href="#NotoSans-Regular-69" transform="translate(383.199921 0)"/>
     <use xlink:href="#NotoSans-Regular-6f" transform="translate(408.999908 0)"/>
     <use xlink:href="#NotoSans-Regular-6e" transform="translate(469.499893 0)"/>
     <use xlink:href="#NotoSans-Regular-20" transform="translate(531.299881 0)"/>
     <use xlink:href="#NotoSans-Regular-41" transform="translate(557.299866 0)"/>
     <use xlink:href="#NotoSans-Regular-6c" transform="translate(621.19986 0)"/>
     <use xlink:href="#NotoSans-Regular-69" transform="translate(646.999847 0)"/>
     <use xlink:href="#NotoSans-Regular-67" transform="translate(672.799835 0)"/>
     <use xlink:href="#NotoSans-Regular-6e" transform="translate(734.29982 0)"/>
     <use xlink:href="#NotoSans-Regular-65" transform="translate(796.099808 0)"/>
     <use xlink:href="#NotoSans-Regular-72" transform="translate(852.499802 0)"/>
     <use xlink:href="#NotoSans-Regular-73" transform="translate(893.799789 0)"/>
    </g>
   </g>
  </g>
 </g>
 <defs>
  <clipPath id="pf0b48426a4">
   <rect x="7.2" y="116.162156" width="892.8" height="665.28"/>
  </clipPath>
 </defs>
</svg>
